<?xml version="1.0" standalone="no"?>
<!DOCTYPE svg PUBLIC "-//W3C//DTD SVG 20010904//EN"
 "http://www.w3.org/TR/2001/REC-SVG-20010904/DTD/svg10.dtd">
<svg version="1.0" xmlns="http://www.w3.org/2000/svg"
 width="512.000000pt" height="512.000000pt" viewBox="0 0 512.000000 512.000000"
 preserveAspectRatio="xMidYMid meet">

<g transform="translate(0.000000,512.000000) scale(0.100000,-0.100000)"
fill="#000000" stroke="none">
<path d="M0 3390 l0 -450 620 -2 621 -3 -592 -475 c-326 -261 -596 -478 -602
-481 -5 -4 118 -165 273 -357 l283 -351 41 32 c22 18 407 326 855 685 l814
652 248 0 247 0 814 -652 c447 -358 831 -666 854 -684 l41 -34 282 351 c238
295 280 352 268 362 -8 7 -279 224 -602 482 l-586 470 620 3 621 2 0 450 0
450 -2560 0 -2560 0 0 -450z m1860 125 c25 -67 28 -64 -109 -172 l-128 -103
-661 0 -662 0 0 150 0 150 775 0 775 0 10 -25z m1086 8 c-3 -10 -48 -144 -99
-298 l-94 -280 -193 0 -193 0 -94 280 c-51 154 -96 288 -99 298 -5 16 18 17
386 17 368 0 391 -1 386 -17z m1874 -133 l0 -150 -660 0 -661 0 -129 103
c-138 108 -135 105 -110 172 l10 25 775 0 775 0 0 -150z m-2785 -400 c27 -82
47 -151 45 -153 -178 -147 -1422 -1137 -1429 -1137 -12 0 -181 212 -179 225 1
10 1497 1214 1508 1215 3 0 28 -67 55 -150z m1865 -455 c415 -333 754 -609
752 -613 -7 -18 -175 -222 -182 -222 -6 0 -1261 998 -1430 1137 -5 5 92 303
100 303 3 0 345 -273 760 -605z"/>
</g>
</svg>
