<?xml version="1.0" standalone="no"?>
<!DOCTYPE svg PUBLIC "-//W3C//DTD SVG 20010904//EN"
 "http://www.w3.org/TR/2001/REC-SVG-20010904/DTD/svg10.dtd">
<svg version="1.0" xmlns="http://www.w3.org/2000/svg"
 width="512.000000pt" height="512.000000pt" viewBox="0 0 512.000000 512.000000"
 preserveAspectRatio="xMidYMid meet">

<g transform="translate(0.000000,512.000000) scale(0.100000,-0.100000)"
fill="#000000" stroke="none">
<path d="M2058 4724 c-65 -20 -114 -70 -182 -186 -36 -62 -67 -103 -84 -112
-15 -7 -138 -59 -274 -114 -136 -56 -266 -113 -290 -128 -60 -38 -152 -128
-187 -183 -50 -78 -1032 -2144 -1037 -2181 -9 -68 3 -77 386 -276 211 -109
366 -184 383 -184 72 0 66 -10 343 585 200 429 260 550 265 533 4 -13 12 -159
18 -325 6 -167 16 -314 21 -329 14 -35 13 -271 -1 -279 -21 -14 -32 -70 -105
-563 -71 -481 -73 -505 -58 -537 32 -69 -51 -65 1304 -65 1355 0 1272 -4 1304
65 15 30 15 43 0 142 -27 185 -35 203 -102 203 -29 0 -54 -20 -65 -52 -3 -9 1
-56 9 -105 7 -48 14 -91 14 -95 0 -5 -373 -8 -830 -8 -595 0 -830 3 -830 11 0
12 153 695 173 773 12 46 17 52 75 84 59 32 64 33 87 18 35 -23 295 -23 330 0
23 15 27 14 87 -17 46 -25 106 -76 224 -191 158 -154 162 -158 204 -158 41 0
48 5 146 101 62 62 105 112 109 129 8 38 -8 74 -62 131 l-46 50 98 -3 99 -3
31 -207 c31 -212 41 -239 84 -251 31 -8 80 19 87 48 6 25 -37 356 -58 442 -6
23 -16 48 -24 54 -17 14 -20 242 -4 283 5 15 15 162 21 329 6 166 14 312 18
325 5 17 65 -104 265 -533 277 -595 271 -585 343 -585 17 0 172 75 383 184
383 198 395 207 386 276 -4 32 -979 2089 -1029 2170 -35 57 -137 159 -197 195
-30 18 -163 77 -295 130 -132 53 -252 104 -267 111 -17 9 -49 50 -84 112 -70
119 -117 166 -186 187 -74 22 -928 21 -1000 -1z m912 -138 c0 -2 -10 -29 -21
-60 l-22 -56 -367 0 -367 0 -22 56 c-11 31 -21 58 -21 60 0 2 185 4 410 4 226
0 410 -2 410 -4z m-724 -623 c44 -32 114 4 114 59 0 15 -22 84 -50 153 -27 69
-50 130 -50 135 0 12 600 14 600 3 1 -15 -294 -753 -300 -753 -4 0 -21 37 -39
83 -39 99 -54 117 -98 117 -40 0 -73 -30 -73 -66 0 -15 29 -100 65 -190 l64
-163 -25 -63 c-14 -35 -29 -66 -33 -70 -4 -5 -111 255 -239 577 l-231 585 36
61 36 61 102 -258 c57 -141 111 -263 121 -271z m888 467 l35 -60 -333 -843
c-387 -976 -418 -1059 -414 -1100 4 -39 46 -72 81 -63 38 9 51 27 82 113 26
72 254 653 575 1461 72 182 135 332 140 332 17 0 474 -190 516 -215 66 -39
135 -122 185 -226 138 -281 949 -1987 949 -1995 0 -5 -55 -37 -122 -71 -68
-35 -199 -101 -291 -149 -92 -48 -170 -84 -173 -81 -3 2 -142 299 -309 658
l-305 653 17 408 c13 309 14 413 5 432 -22 48 -106 45 -128 -4 -7 -16 -23
-323 -43 -825 -17 -440 -34 -837 -37 -883 l-6 -82 -398 0 -398 0 -16 25 c-24
37 -77 48 -214 44 -67 -2 -122 -4 -122 -4 5 0 30 107 30 127 0 55 -69 88 -115
54 -10 -7 -34 -61 -55 -127 l-36 -114 -63 -3 c-56 -3 -62 -1 -57 15 74 256
202 615 373 1048 426 1076 608 1535 609 1535 1 0 18 -27 38 -60z m-1099 -682
c114 -288 229 -577 255 -643 l48 -120 -20 -50 c-111 -274 -295 -797 -364
-1032 -2 -10 -51 -13 -198 -13 l-194 0 -6 93 c-3 50 -20 434 -36 852 -16 418
-32 779 -34 803 -2 24 -12 52 -21 62 -24 26 -79 26 -105 0 -25 -25 -25 -45 -5
-509 l15 -345 -300 -645 c-165 -355 -305 -652 -309 -660 -7 -11 -40 2 -168 68
-87 45 -218 112 -290 149 -73 36 -133 71 -133 76 0 8 808 1708 944 1985 54
110 119 193 184 233 38 23 498 216 519 217 6 1 104 -234 218 -521z m585 -2068
l0 -130 -60 0 -60 0 0 130 0 130 60 0 60 0 0 -130z m-611 28 c-24 -17 -61 -46
-82 -65 l-37 -33 -155 0 -155 0 0 65 0 65 237 0 236 0 -44 -32z m1531 -33 l0
-65 -155 0 -155 0 -37 33 c-21 19 -58 48 -82 65 l-44 32 236 0 237 0 0 -65z
m-1192 -36 l-3 -61 -57 -23 c-88 -36 -143 -78 -280 -214 l-128 -126 -42 43
-43 43 140 138 c143 140 200 181 325 233 92 39 91 39 88 -33z m499 40 c125
-47 207 -106 363 -263 l115 -116 -43 -42 -42 -43 -128 126 c-137 136 -192 178
-280 214 l-57 23 -3 61 c-2 36 1 61 7 61 6 0 36 -10 68 -21z m-1161 -269 c-85
-91 -84 -125 7 -217 l61 -62 -48 -213 c-26 -117 -57 -252 -68 -300 l-20 -88
-110 0 -110 0 6 33 c3 17 33 221 66 452 34 231 63 426 65 433 3 8 32 12 101
12 l97 0 -47 -50z m294 -531 c-34 -151 -66 -291 -71 -311 l-10 -38 -59 0 c-51
0 -60 3 -60 18 0 16 93 439 106 484 3 9 15 19 27 22 12 3 44 28 71 55 28 28
51 49 53 47 2 -2 -24 -127 -57 -277z"/>
<path d="M4545 1900 c-82 -43 -155 -87 -162 -96 -31 -42 8 -114 61 -114 33 0
333 156 346 180 15 29 12 55 -11 84 -33 41 -67 34 -234 -54z"/>
<path d="M341 1954 c-23 -29 -26 -55 -11 -84 12 -23 314 -180 346 -180 27 0
74 40 74 64 0 48 -20 64 -174 145 -172 89 -203 96 -235 55z"/>
</g>
</svg>
