<?xml version="1.0" standalone="no"?>
<!DOCTYPE svg PUBLIC "-//W3C//DTD SVG 20010904//EN"
 "http://www.w3.org/TR/2001/REC-SVG-20010904/DTD/svg10.dtd">
<svg version="1.0" xmlns="http://www.w3.org/2000/svg"
 width="1200.000000pt" height="1500.000000pt" viewBox="0 0 1200.000000 1500.000000"
 preserveAspectRatio="xMidYMid meet">

<g transform="translate(0.000000,1500.000000) scale(0.100000,-0.100000)"
fill="#000000" stroke="none">
<path d="M5654 14390 c-1303 -75 -2526 -562 -3534 -1410 -173 -145 -554 -526
-699 -699 -762 -907 -1235 -1988 -1375 -3141 -46 -375 -55 -911 -22 -1255 77
-807 279 -1505 640 -2211 53 -103 92 -190 88 -193 -22 -17 -52 -74 -51 -98 1
-16 -8 -54 -21 -86 l-22 -58 20 -52 c11 -29 23 -78 27 -109 4 -32 11 -60 16
-63 5 -4 9 -18 9 -32 0 -13 9 -36 20 -50 11 -14 20 -33 20 -43 0 -9 18 -36 40
-60 53 -57 53 -85 0 -34 -22 22 -40 45 -40 52 0 8 -8 12 -17 10 -13 -2 -19
-15 -21 -47 -2 -24 2 -49 7 -54 6 -6 11 -26 11 -43 0 -18 4 -36 10 -39 6 -4
10 -62 10 -141 0 -104 4 -142 16 -166 9 -18 15 -49 13 -77 -2 -25 1 -57 5 -71
10 -29 14 -66 26 -250 4 -74 13 -166 20 -205 6 -38 12 -80 12 -93 0 -14 13
-33 34 -48 19 -15 34 -31 34 -38 0 -17 100 -126 115 -126 7 0 18 -13 24 -29 7
-15 23 -33 36 -39 13 -6 34 -25 46 -41 13 -17 31 -31 41 -31 10 0 18 -7 18
-15 0 -9 8 -18 17 -22 10 -3 32 -16 49 -29 17 -13 43 -26 57 -29 14 -4 28 -13
31 -20 3 -8 29 -26 58 -41 29 -15 55 -29 58 -33 15 -18 73 -41 105 -41 22 0
47 -8 62 -20 14 -11 33 -20 42 -20 10 0 21 -4 26 -8 6 -5 30 -14 55 -21 25 -7
72 -22 105 -33 33 -12 78 -23 100 -26 22 -2 44 -8 50 -13 5 -5 35 -9 66 -9 32
0 61 -5 64 -10 3 -6 28 -10 55 -10 27 0 52 -5 55 -10 3 -6 37 -10 74 -10 47 0
72 -4 80 -14 8 -10 23 -13 45 -9 20 3 36 1 40 -6 4 -6 34 -11 66 -11 32 0 62
-5 65 -10 10 -16 -13 -38 -48 -46 -17 -3 -46 -15 -64 -25 -19 -11 -45 -19 -59
-19 -17 0 -27 -8 -34 -25 -6 -15 -20 -27 -37 -31 -15 -4 -62 -24 -103 -46 -41
-21 -83 -38 -93 -38 -11 0 -30 -9 -44 -20 -14 -11 -32 -20 -40 -20 -8 0 -34
-11 -59 -25 -25 -14 -53 -25 -63 -25 -10 0 -24 -7 -31 -15 -15 -18 -55 -37
-127 -60 -28 -9 -61 -25 -74 -35 -13 -12 -37 -20 -57 -20 -20 0 -45 -8 -56
-18 -12 -10 -46 -26 -76 -36 -30 -11 -59 -23 -65 -27 -5 -5 -19 -9 -30 -9 -12
0 -30 -9 -39 -19 -10 -11 -43 -28 -74 -37 -32 -10 -68 -24 -82 -31 -14 -7 -34
-13 -45 -13 -11 0 -40 -14 -64 -30 -24 -17 -57 -30 -72 -30 -15 0 -31 -4 -34
-10 -3 -5 -15 -10 -26 -10 -11 0 -37 -11 -57 -25 -26 -18 -50 -25 -84 -25 -47
0 -74 -10 -111 -39 -21 -17 -84 -41 -110 -41 -18 0 -81 -27 -186 -78 -53 -27
-89 -67 -90 -105 -1 -17 23 -56 80 -132 16 -22 44 -61 60 -87 17 -27 37 -48
44 -48 8 0 19 -17 24 -37 6 -21 29 -58 51 -82 22 -24 40 -49 40 -56 0 -8 11
-26 24 -42 13 -15 33 -47 44 -70 12 -23 30 -44 40 -47 10 -4 28 -28 40 -56 12
-27 31 -54 43 -60 11 -6 25 -25 31 -41 18 -52 68 -63 68 -15 0 37 30 56 88 56
29 0 52 -4 52 -10 0 -5 -13 -10 -29 -10 -21 0 -38 -10 -60 -35 -36 -41 -37
-49 -13 -79 l17 -23 20 24 c11 12 30 23 42 23 12 0 25 4 28 10 3 5 16 10 27
10 12 0 35 4 52 9 17 5 53 14 81 21 27 6 57 18 66 26 8 8 25 14 37 14 11 0 24
4 27 10 3 5 23 10 44 10 20 0 41 4 47 8 5 4 34 16 64 27 30 10 58 23 62 28 3
6 33 14 66 18 39 4 72 15 94 31 35 26 92 48 124 48 22 0 82 20 104 35 23 15
83 35 107 35 12 0 25 4 28 10 3 5 15 10 26 10 11 0 40 13 64 30 28 19 56 30
78 30 19 0 40 7 47 15 7 8 19 15 26 15 7 0 29 9 49 20 20 11 46 20 59 20 13 0
43 13 67 30 24 16 59 33 78 36 19 4 52 17 75 30 23 13 48 24 57 24 9 0 24 9
34 20 10 11 30 20 45 20 15 0 49 11 76 25 27 14 53 25 58 25 15 0 116 52 116
60 0 10 125 50 158 50 33 0 45 8 61 38 7 13 21 22 36 22 13 0 32 9 42 19 10
11 30 22 46 26 15 4 44 16 65 26 20 11 53 22 74 25 24 4 38 13 41 25 3 11 14
19 25 19 25 0 134 54 152 74 7 9 26 16 42 16 17 0 43 10 59 25 16 13 45 27 64
31 19 3 39 12 46 20 6 8 16 14 21 14 5 0 24 11 41 24 18 14 46 28 62 32 17 4
35 10 40 14 6 4 24 10 40 14 33 8 65 33 65 51 0 6 31 22 69 34 74 24 102 51
52 51 -15 0 -31 3 -34 7 -11 10 14 33 37 33 12 0 29 9 39 20 18 21 47 27 47 9
0 -6 -13 -16 -30 -22 -44 -17 -38 -37 10 -37 22 0 40 4 40 9 0 10 103 61 124
61 6 0 29 14 50 30 22 17 51 30 65 30 14 0 41 9 59 20 18 11 39 20 47 20 8 0
15 4 15 9 0 18 31 41 55 41 12 0 25 7 29 15 3 8 16 20 28 26 58 26 103 57 106
72 5 27 -41 21 -68 -8 -13 -14 -32 -25 -43 -25 -10 0 -30 -9 -44 -20 -26 -20
-53 -26 -53 -12 0 15 24 32 46 32 12 0 35 10 51 23 29 23 53 36 110 57 18 7
46 25 63 41 17 17 41 29 55 29 14 0 50 18 80 40 51 38 88 50 99 32 7 -12 -6
-26 -36 -39 -16 -7 -28 -17 -28 -23 0 -5 -4 -10 -10 -10 -13 0 -150 -110 -150
-121 0 -4 -26 -21 -57 -37 -59 -30 -89 -61 -65 -69 17 -7 15 -30 -4 -37 -22
-9 -23 -8 -17 14 5 17 0 20 -31 20 -24 0 -39 -5 -43 -15 -6 -18 -74 -55 -98
-55 -9 0 -28 -13 -42 -30 -13 -16 -33 -30 -43 -30 -29 0 -50 -11 -50 -26 0
-17 43 -19 72 -3 25 14 36 3 20 -21 -10 -17 -8 -21 21 -34 17 -8 46 -17 62
-20 47 -9 188 -42 205 -49 8 -3 26 -8 40 -10 66 -14 101 -26 128 -45 16 -12
49 -24 73 -28 24 -4 55 -15 68 -26 16 -12 40 -18 73 -18 42 0 54 -5 80 -30 25
-25 37 -30 79 -30 27 0 58 -5 69 -12 14 -9 24 -9 42 -1 13 7 39 14 58 17 63 9
94 19 110 37 8 9 43 32 78 49 43 22 62 38 62 51 0 12 15 26 40 39 21 11 44 29
50 40 13 23 48 27 56 5 8 -19 34 -19 34 0 0 8 -7 15 -15 15 -8 0 -15 9 -15 20
0 11 5 20 11 20 19 0 108 64 120 87 7 13 26 27 43 31 23 6 33 16 41 40 5 18
14 32 20 32 12 0 38 77 30 91 -4 5 -12 9 -20 9 -7 0 -16 7 -19 16 -9 24 -8 26
14 19 29 -9 60 3 60 24 0 20 -53 75 -63 64 -4 -3 -17 2 -30 13 -12 11 -34 25
-49 32 -16 6 -28 16 -28 22 0 5 -9 10 -20 10 -20 0 -90 55 -90 71 0 20 35 7
65 -24 17 -18 52 -39 76 -47 24 -8 58 -27 76 -43 25 -22 40 -28 70 -25 32 3
41 8 55 38 9 19 17 52 18 73 0 20 4 45 9 55 5 9 13 30 17 46 5 16 15 31 23 34
10 3 12 -6 8 -44 -9 -83 -19 -114 -38 -124 -11 -7 -18 -21 -17 -38 0 -15 -7
-45 -15 -67 -9 -22 -16 -53 -17 -68 0 -19 -10 -38 -30 -55 -20 -18 -30 -36
-30 -54 0 -18 -5 -28 -15 -28 -8 0 -15 -8 -15 -19 0 -10 -8 -29 -18 -42 -11
-13 -22 -36 -25 -50 -4 -14 -18 -31 -31 -37 -14 -6 -32 -25 -40 -41 -9 -16
-25 -33 -36 -36 -12 -4 -26 -17 -32 -29 -12 -29 -88 -66 -132 -66 -20 0 -40
-8 -51 -20 -10 -11 -23 -20 -30 -20 -22 0 -57 -60 -51 -86 6 -22 11 -24 71
-24 35 0 66 4 69 9 3 4 18 11 33 14 16 4 48 24 72 47 25 22 47 40 50 40 3 0
14 14 23 30 10 17 31 38 48 48 16 9 30 23 30 30 0 6 7 12 15 12 13 0 14 -4 4
-23 -6 -12 -21 -31 -33 -42 -13 -11 -33 -37 -45 -57 l-23 -38 34 6 c18 3 49 9
68 14 19 5 58 11 86 14 28 3 75 16 105 29 72 33 119 47 157 47 17 0 33 4 37 9
3 6 27 13 53 17 26 4 59 13 74 20 17 9 60 14 112 14 75 0 87 2 96 20 6 11 19
20 30 20 10 0 22 5 26 11 3 6 26 19 50 29 29 13 44 25 44 38 0 10 16 33 35 52
19 19 35 45 35 57 0 12 13 38 30 56 17 19 30 44 30 55 0 11 6 25 13 31 8 6 22
29 32 51 10 22 24 40 32 40 8 0 13 12 13 35 0 20 9 53 20 75 11 22 20 48 20
59 0 30 11 51 26 51 21 0 17 -64 -6 -102 -11 -18 -20 -41 -20 -51 0 -9 -9 -34
-20 -54 -11 -21 -20 -47 -20 -59 0 -12 -11 -29 -25 -38 -14 -9 -25 -23 -25
-32 0 -23 -59 -134 -75 -141 -8 -3 -15 -11 -15 -18 0 -7 -9 -24 -20 -38 -35
-45 -27 -70 31 -95 52 -22 62 -44 21 -50 -13 -2 -26 5 -34 17 -7 12 -21 21
-30 21 -9 0 -29 5 -43 12 -21 9 -29 9 -42 -4 -18 -19 -11 -48 13 -48 9 0 39
-12 67 -28 55 -29 101 -46 155 -57 17 -4 32 -10 32 -15 0 -10 92 -55 145 -71
22 -6 54 -24 71 -39 17 -14 53 -32 80 -40 27 -7 63 -24 81 -36 17 -13 42 -24
55 -24 13 0 44 -13 69 -28 24 -15 64 -34 89 -41 59 -18 147 -58 155 -71 3 -6
15 -10 27 -10 11 0 57 -18 103 -40 46 -22 95 -40 110 -40 15 0 38 -9 52 -20
14 -11 32 -20 39 -20 7 0 29 -9 49 -20 20 -11 46 -20 59 -20 13 0 40 -11 60
-25 20 -14 43 -25 51 -25 8 0 17 -5 20 -10 3 -6 15 -10 25 -10 11 0 34 -9 52
-20 18 -11 43 -20 54 -20 12 0 24 -6 27 -14 3 -8 27 -15 63 -18 37 -3 61 -11
69 -21 7 -10 21 -17 32 -17 11 0 30 -11 43 -25 13 -14 30 -23 38 -20 8 3 53
-13 99 -35 46 -22 97 -40 112 -40 15 0 36 -9 46 -20 10 -11 28 -20 40 -20 13
0 28 -7 35 -15 7 -8 28 -15 46 -15 19 0 42 -4 52 -9 9 -5 28 -14 42 -20 14 -6
32 -15 40 -19 41 -24 61 -32 77 -32 21 0 81 -21 103 -35 38 -25 65 -35 95 -35
19 0 39 -8 50 -20 10 -11 28 -20 40 -20 12 0 34 -9 48 -20 14 -11 40 -20 57
-20 19 0 54 -13 82 -30 26 -16 56 -30 66 -30 20 0 89 -23 98 -33 4 -4 18 -7
31 -7 13 0 41 -11 63 -25 22 -14 50 -25 62 -25 13 0 38 -9 56 -20 18 -11 44
-20 57 -20 15 0 31 -10 41 -25 14 -21 24 -25 65 -25 46 0 49 2 49 25 0 16 13
39 35 61 19 19 35 39 35 45 0 5 20 31 44 57 24 26 51 63 61 82 10 19 24 39 31
43 8 4 14 17 14 28 0 11 10 23 24 29 13 4 33 23 44 42 11 18 34 46 51 62 17
17 31 35 31 42 0 6 10 18 23 26 12 9 29 28 37 44 8 16 31 45 50 64 19 19 47
49 62 65 15 17 32 35 37 40 6 6 29 32 51 59 29 34 38 52 31 59 -8 8 -15 7 -23
-1 -7 -7 -18 -12 -25 -12 -16 0 -17 42 -1 58 9 9 9 15 0 24 -19 19 -104 48
-139 48 -18 0 -33 5 -33 10 0 6 -4 10 -10 10 -5 0 -26 11 -46 25 -20 14 -46
25 -58 25 -23 0 -92 22 -102 33 -4 4 -14 7 -22 7 -7 0 -25 9 -39 20 -15 12
-41 20 -63 20 -21 0 -42 6 -48 13 -6 7 -34 19 -62 27 -28 8 -53 18 -56 22 -3
4 -16 8 -30 8 -31 0 -80 24 -87 43 -3 8 -23 17 -44 21 -69 11 -80 14 -111 30
-17 9 -42 16 -56 16 -16 0 -32 9 -41 24 -11 17 -29 26 -63 31 -25 4 -63 15
-84 26 -20 10 -43 19 -51 19 -8 0 -22 9 -32 20 -10 11 -29 20 -41 20 -21 0
-75 20 -147 56 -16 8 -41 14 -57 14 -16 0 -32 5 -35 10 -3 6 -17 10 -30 10
-14 0 -26 7 -29 18 -4 11 -33 25 -83 41 -43 14 -95 35 -115 48 -21 13 -49 23
-62 23 -34 0 -56 10 -56 26 0 7 -16 16 -37 20 -21 4 -42 10 -48 14 -5 4 -35
15 -65 24 -30 10 -59 23 -65 30 -20 24 -60 46 -85 46 -15 0 -35 7 -46 15 -10
8 -31 15 -45 15 -14 0 -38 11 -53 25 -15 14 -36 25 -47 25 -10 0 -19 5 -19 11
0 5 -20 19 -45 30 -25 11 -43 24 -40 29 4 6 13 6 23 1 9 -5 31 -14 47 -21 17
-7 38 -17 48 -22 12 -6 23 -5 33 3 11 9 18 9 29 -1 12 -10 19 -10 27 -2 8 8
52 12 123 12 74 0 115 4 123 12 10 10 17 10 33 -1 15 -9 24 -10 32 -2 6 6 32
11 57 11 25 0 50 4 55 9 6 5 37 11 70 14 67 5 145 23 160 38 5 5 18 9 29 9 11
0 33 4 50 9 17 5 51 15 76 21 25 6 72 25 106 41 34 16 75 29 92 29 21 0 35 7
42 21 9 15 18 19 35 15 17 -4 27 0 39 19 12 18 26 25 47 25 19 0 38 9 52 24
12 13 54 40 94 60 39 20 77 44 83 52 7 8 21 14 30 14 10 0 32 11 48 25 17 14
36 25 43 25 7 0 21 7 31 17 10 9 26 21 37 27 44 26 121 89 121 98 0 6 27 36
60 66 34 30 70 73 82 96 11 22 27 49 35 58 8 9 12 22 8 28 -3 6 3 30 14 53 17
35 21 68 25 192 5 167 12 231 31 258 7 11 11 35 8 61 -3 26 -1 46 6 50 6 4 11
38 11 82 0 42 5 85 12 97 6 12 12 51 13 87 2 99 25 251 41 274 16 23 19 82 5
91 -11 6 -44 -33 -60 -74 -7 -16 -21 -31 -32 -34 -11 -3 -22 -17 -25 -35 -3
-17 -21 -45 -40 -63 -19 -18 -34 -37 -34 -43 0 -14 -248 -254 -271 -261 -10
-3 -21 -15 -24 -26 -4 -13 -15 -19 -35 -19 -18 0 -33 -8 -43 -24 -9 -13 -28
-27 -43 -30 -16 -4 -34 -16 -42 -27 -7 -10 -20 -19 -29 -19 -8 0 -28 -13 -43
-30 -17 -18 -38 -30 -53 -30 -13 0 -30 -7 -37 -15 -7 -8 -20 -15 -29 -15 -9 0
-27 -9 -41 -20 -14 -11 -37 -20 -52 -20 -60 0 -17 39 71 66 31 9 67 27 81 39
35 31 98 65 119 65 10 0 23 11 29 25 6 14 23 27 39 31 15 3 33 11 38 18 6 6
30 24 55 41 50 33 160 139 160 155 0 5 11 10 25 10 14 0 25 6 25 13 0 17 48
71 78 86 12 6 22 20 22 31 0 20 71 130 119 185 16 19 34 50 39 69 6 19 21 47
35 61 22 25 25 37 31 161 4 86 3 141 -4 154 -5 10 -10 30 -10 44 0 22 -4 26
-31 26 -17 0 -29 3 -27 8 2 4 46 93 99 197 352 693 548 1377 626 2185 20 217
24 767 5 980 -71 818 -266 1519 -618 2221 -292 585 -642 1068 -1118 1545 -328
328 -582 536 -948 778 -1067 704 -2345 1048 -3624 976z m821 -190 c760 -70
1418 -253 2080 -580 1153 -569 2058 -1470 2635 -2624 325 -649 509 -1299 587
-2066 24 -245 24 -795 0 -1040 -75 -737 -251 -1375 -551 -1995 -51 -105 -118
-236 -149 -292 l-57 -102 -146 -3 c-125 -3 -147 -6 -158 -20 -18 -24 -29 -23
-21 2 6 18 2 20 -48 20 -47 0 -58 -4 -78 -26 -13 -15 -36 -39 -51 -55 -16 -15
-28 -31 -28 -36 0 -5 -20 -29 -45 -53 -25 -24 -45 -50 -45 -56 0 -7 -10 -16
-22 -20 -25 -8 -58 -36 -133 -111 -28 -29 -55 -53 -60 -53 -4 0 -25 -15 -46
-32 -71 -61 -107 -88 -113 -88 -4 0 -24 -18 -45 -40 -21 -23 -47 -40 -59 -40
-13 0 -22 -6 -22 -15 0 -9 -19 -24 -42 -34 -24 -11 -65 -38 -92 -60 -26 -23
-55 -41 -63 -41 -9 0 -38 -16 -64 -35 -27 -19 -55 -35 -62 -35 -8 0 -23 -10
-35 -23 -12 -13 -50 -37 -85 -53 -34 -16 -68 -37 -75 -46 -7 -10 -32 -23 -55
-30 -23 -6 -66 -27 -95 -45 -32 -20 -65 -33 -85 -33 -22 0 -41 -8 -56 -24 -12
-12 -38 -28 -59 -34 -105 -30 -122 -36 -122 -42 0 -12 -78 -50 -103 -50 -14 0
-29 -4 -32 -10 -3 -5 -13 -10 -22 -10 -20 0 -83 -30 -83 -40 0 -5 10 -10 23
-12 34 -5 27 -32 -9 -36 -25 -2 -33 1 -37 17 -7 29 -74 29 -111 0 -15 -11 -32
-22 -39 -23 -22 -3 -77 -28 -77 -35 0 -4 4 -11 10 -17 5 -5 6 -14 2 -19 -10
-15 -74 -35 -108 -35 -17 0 -49 -9 -72 -20 -22 -11 -51 -20 -64 -20 -13 0 -34
-9 -48 -20 -27 -21 -113 -27 -140 -10 -13 9 -13 11 0 20 11 8 3 10 -30 8 -53
-4 -63 -29 -15 -38 l30 -6 -32 -17 c-20 -11 -42 -15 -61 -11 -34 7 -85 -17
-115 -54 -10 -12 -29 -22 -42 -22 -36 0 -55 -10 -55 -30 0 -20 19 -30 56 -30
32 0 31 -28 -1 -36 -30 -7 -28 2 -26 -149 l2 -120 32 -28 c17 -15 40 -27 50
-27 24 0 77 -28 77 -40 0 -6 7 -10 15 -10 8 0 15 -4 15 -10 0 -5 -2 -10 -5
-10 -12 0 -115 51 -120 60 -3 6 -19 10 -36 10 -26 0 -29 -3 -29 -33 0 -18 -4
-37 -9 -43 -5 -5 -12 -34 -15 -64 -4 -30 -9 -78 -12 -107 -3 -29 -12 -57 -20
-64 -8 -6 -14 -20 -14 -30 0 -33 -20 -31 -21 3 -3 91 14 188 42 240 5 10 9 50
9 89 0 38 5 80 11 91 8 14 8 23 0 31 -6 6 -11 47 -11 94 0 69 -4 92 -25 133
-14 27 -25 60 -25 74 0 25 -64 108 -150 194 -57 57 -74 65 -145 73 -90 9 -178
36 -194 59 -11 16 -25 20 -68 20 -35 0 -60 5 -69 15 -9 8 -26 15 -39 15 -13 0
-44 9 -70 20 -26 11 -61 20 -79 20 -20 0 -49 11 -72 28 -46 32 -90 48 -159 58
l-50 7 23 -25 c12 -13 22 -29 22 -36 0 -6 14 -31 30 -54 17 -24 38 -53 46 -65
9 -13 13 -30 10 -39 -6 -16 -8 -16 -25 0 -9 9 -32 44 -49 79 -17 34 -41 68
-52 75 -11 7 -20 18 -20 26 0 7 -14 19 -30 26 -17 7 -40 26 -51 41 -11 16 -28
29 -37 29 -8 0 -25 8 -36 19 -24 21 -134 51 -188 51 -20 0 -49 -5 -65 -11 -15
-7 -44 -15 -63 -18 -29 -5 -36 -11 -38 -33 -5 -39 36 -48 88 -19 51 28 137 29
173 1 14 -11 32 -20 40 -20 9 0 23 -7 31 -15 9 -9 36 -25 61 -36 28 -12 45
-26 45 -37 0 -9 13 -25 30 -34 16 -9 35 -32 43 -50 8 -18 25 -46 39 -63 14
-16 36 -64 48 -105 13 -41 32 -92 42 -112 21 -44 25 -142 6 -136 -7 3 -17 18
-22 34 -4 16 -12 37 -17 46 -5 10 -9 27 -9 38 0 27 -40 87 -65 98 -11 5 -40
28 -65 50 -25 22 -61 47 -80 55 -49 22 -84 52 -76 66 9 13 46 15 46 1 0 -14
41 -50 57 -50 8 0 35 -16 60 -35 67 -51 97 -44 53 12 -11 14 -20 35 -20 47 0
13 -31 50 -85 100 -80 76 -132 106 -182 106 -12 0 -25 5 -28 10 -8 13 -62 13
-70 0 -3 -6 -15 -10 -26 -10 -10 0 -19 -7 -19 -15 0 -8 4 -15 9 -15 4 0 31
-18 59 -40 27 -22 57 -40 66 -40 9 0 16 -4 16 -9 0 -5 9 -11 20 -14 23 -6 27
-37 5 -37 -8 0 -19 9 -25 20 -6 11 -23 23 -38 26 -36 9 -119 51 -127 64 -4 6
-19 16 -33 22 -60 25 -128 47 -143 48 -9 0 -24 9 -34 20 -14 16 -31 20 -80 20
-44 0 -69 5 -86 18 -20 15 -48 18 -152 21 -114 2 -131 1 -163 -18 -28 -17 -52
-21 -116 -21 -64 0 -86 -4 -102 -18 -24 -20 -72 -38 -131 -47 -70 -11 -101
-25 -130 -55 -16 -17 -38 -30 -49 -30 -30 0 -105 -28 -137 -51 -15 -10 -36
-19 -47 -19 -10 0 -31 -9 -45 -20 -14 -11 -43 -27 -64 -36 -84 -34 -93 -40
-93 -55 0 -17 18 -22 145 -35 28 -3 59 -9 70 -14 11 -5 40 -16 65 -23 25 -8
45 -21 45 -28 0 -20 -44 -23 -63 -6 -24 22 -90 47 -121 47 -15 0 -32 5 -38 11
-14 14 -205 1 -200 -15 2 -6 18 -12 36 -14 24 -3 31 -8 29 -20 -3 -14 -16 -17
-68 -18 -66 -1 -82 -11 -55 -34 18 -15 27 -16 165 -25 52 -3 107 -10 122 -16
15 -6 32 -8 39 -4 20 13 -31 34 -81 35 -43 0 -70 13 -70 32 0 4 29 8 65 8 52
0 69 -4 85 -20 11 -11 31 -20 44 -20 13 0 29 -7 36 -15 7 -8 22 -15 33 -15 41
0 103 -24 132 -52 17 -15 38 -28 46 -28 8 0 20 -9 27 -20 7 -11 20 -20 30 -20
10 0 23 -5 30 -12 7 -7 27 -17 44 -22 23 -8 34 -18 36 -34 4 -23 3 -23 -28 -7
-17 9 -34 23 -37 31 -3 7 -18 14 -34 14 -15 0 -32 6 -36 13 -9 13 -92 57 -109
57 -6 0 -28 13 -48 29 -20 16 -51 33 -68 36 -26 6 -35 2 -67 -29 -20 -20 -46
-36 -57 -36 -11 0 -43 -16 -73 -35 -29 -19 -65 -35 -80 -35 -15 0 -36 -9 -46
-20 -25 -28 -43 -25 -47 7 -2 19 -10 29 -28 34 -14 4 -127 7 -252 8 -139 1
-229 5 -233 11 -3 6 -15 10 -26 10 -10 0 -19 5 -19 10 0 13 77 13 85 0 4 -6
118 -10 310 -10 294 0 305 1 315 20 10 19 8 20 -39 20 -28 0 -72 4 -98 10 -73
14 -171 22 -355 26 -260 7 -207 24 80 25 136 1 229 5 207 8 -22 4 -50 13 -63
20 -12 6 -27 9 -33 5 -17 -10 -79 6 -79 20 0 8 16 17 36 21 53 9 42 17 -56 35
-25 5 -63 13 -85 19 -22 6 -61 11 -87 11 -26 0 -50 5 -53 10 -3 6 -25 10 -49
10 -29 0 -48 6 -60 19 -10 10 -33 22 -52 25 -19 3 -49 9 -68 12 -19 3 -36 1
-40 -5 -7 -11 43 -41 69 -41 8 0 15 -4 15 -10 0 -13 -77 -13 -85 0 -3 5 -19
10 -35 10 -42 0 -47 28 -7 38 31 8 31 9 10 20 -22 12 -53 7 -53 -9 0 -5 -12
-9 -27 -9 l-28 1 25 14 25 13 -30 11 c-16 6 -46 20 -66 31 -20 11 -52 20 -71
20 -19 0 -39 5 -45 11 -11 11 -136 48 -191 56 -18 3 -35 9 -38 14 -3 5 -16 9
-28 9 -15 0 -26 7 -29 20 -4 14 -14 20 -34 20 -16 0 -38 7 -49 15 -10 8 -32
15 -48 15 -24 0 -27 -2 -16 -15 7 -8 17 -15 23 -15 6 0 24 -12 40 -27 16 -16
40 -28 55 -29 43 0 92 -15 92 -26 0 -6 -14 -8 -37 -4 -21 3 -46 6 -55 7 -10 0
-20 4 -23 10 -4 5 -18 9 -33 9 -15 0 -40 9 -57 20 -64 42 -79 49 -180 81 -38
13 -79 31 -91 41 -11 10 -36 18 -56 18 -23 0 -38 6 -42 15 -5 14 -52 39 -124
66 -18 6 -37 20 -43 30 -5 11 -16 19 -24 19 -8 0 -41 13 -73 30 -33 17 -64 30
-70 30 -5 0 -12 7 -16 15 -3 8 -14 15 -24 15 -10 0 -27 9 -37 20 -9 10 -33 24
-51 30 -19 7 -39 20 -44 31 -6 10 -21 19 -34 19 -14 0 -28 9 -35 24 -8 13 -25
26 -40 29 -15 3 -43 22 -63 41 -20 20 -42 36 -48 36 -6 0 -30 18 -52 40 -23
22 -48 40 -55 40 -7 0 -28 13 -46 29 -17 16 -49 45 -71 63 -21 18 -74 68 -118
110 -44 42 -84 78 -88 80 -13 5 -112 130 -106 135 7 8 126 -109 126 -124 0 -7
4 -13 10 -13 8 0 46 -33 171 -152 15 -14 37 -29 47 -32 11 -4 22 -16 25 -26 3
-12 14 -20 26 -20 11 0 28 -11 36 -24 9 -13 29 -29 44 -36 16 -6 41 -25 57
-41 15 -16 31 -29 35 -29 12 0 89 -53 89 -61 0 -4 18 -14 40 -23 22 -9 40 -20
40 -26 0 -11 92 -60 114 -60 8 0 28 -13 44 -30 18 -17 41 -30 56 -30 13 0 28
-5 31 -10 7 -12 99 -60 115 -60 6 0 29 -12 53 -27 61 -40 86 -52 145 -75 29
-11 52 -26 52 -34 0 -10 12 -14 40 -14 29 0 40 4 40 15 0 8 -6 15 -12 15 -7 1
-31 9 -53 20 -22 11 -45 19 -51 20 -5 0 -38 18 -72 40 -33 22 -72 40 -85 40
-14 0 -30 7 -37 15 -7 8 -17 15 -22 15 -5 0 -21 9 -35 20 -14 11 -33 20 -42
20 -10 0 -30 14 -46 30 -16 17 -37 30 -47 30 -9 0 -37 10 -60 23 l-43 22 130
6 c187 8 257 43 307 153 22 48 23 64 26 310 2 142 1 269 -2 282 l-6 24 -276 0
-275 0 3 -57 3 -58 38 -3 c38 -3 38 -4 23 -27 -15 -22 -14 -49 8 -317 14 -161
23 -294 21 -297 -3 -2 -13 3 -22 11 -10 8 -34 22 -53 31 -19 8 -45 25 -57 36
-12 12 -28 21 -36 21 -7 0 -28 16 -47 35 -19 19 -40 35 -47 35 -7 0 -27 16
-44 35 -18 19 -41 35 -51 35 -10 0 -23 11 -28 24 -5 13 -18 27 -29 31 -11 3
-51 36 -88 73 -38 37 -84 81 -103 98 -43 38 -92 92 -144 159 -60 77 -71 85
-116 85 -22 0 -40 -2 -40 -4 0 -2 17 -21 38 -42 37 -38 37 -39 13 -42 -26 -4
-33 3 -63 57 l-17 31 -96 0 c-80 0 -95 -2 -95 -16 0 -23 -25 -11 -26 12 -1 11
-21 55 -46 99 -72 128 -193 373 -257 522 -401 940 -547 1947 -430 2968 75 665
268 1310 568 1911 296 589 632 1056 1095 1520 459 458 931 800 1506 1087 710
356 1429 550 2250 607 151 10 682 4 835 -10z m4735 -8849 c0 -133 -2 -151 -20
-174 -11 -14 -20 -32 -20 -40 0 -9 -4 -19 -10 -22 -5 -3 -10 -16 -10 -28 0
-12 -9 -33 -20 -47 -11 -14 -20 -30 -20 -36 0 -7 -7 -14 -15 -18 -8 -3 -15
-10 -15 -16 0 -7 -14 -25 -30 -42 -17 -17 -39 -47 -50 -67 -24 -46 -295 -321
-317 -321 -3 0 -21 -13 -40 -30 -18 -16 -40 -30 -48 -30 -8 0 -15 -6 -15 -14
0 -18 -23 -27 -41 -15 -11 8 -7 15 20 39 19 16 47 32 64 36 18 4 36 18 49 40
11 19 32 41 47 48 14 8 40 32 56 55 19 26 38 41 52 41 12 0 24 8 28 19 3 11
12 22 20 25 8 3 15 12 15 21 0 8 26 41 58 73 31 33 65 74 75 91 9 18 26 35 37
38 11 3 20 14 20 24 0 20 37 88 57 104 8 7 14 52 17 130 10 225 15 265 37 265
18 0 19 -9 19 -149z m-360 90 c0 -15 -28 -33 -40 -26 -8 5 -8 11 1 21 13 15
39 19 39 5z m-8410 -214 c0 -191 -1 -205 -22 -247 -28 -53 -75 -80 -140 -80
-39 0 -48 3 -48 18 0 23 -28 369 -36 450 l-6 62 126 0 126 0 0 -203z m8220
193 c0 -5 -4 -10 -8 -10 -4 0 -12 -15 -17 -32 -7 -23 -17 -34 -32 -36 -32 -5
-29 16 9 55 32 34 48 41 48 23z m300 -40 c-12 -23 -30 -27 -30 -7 0 17 10 27
27 27 11 0 11 -5 3 -20z m-10060 -6 c0 -17 -22 -14 -28 4 -2 7 3 12 12 12 9 0
16 -7 16 -16z m310 -39 c0 -8 14 -22 31 -30 35 -18 34 -40 -2 -40 -18 0 -25 6
-27 25 -2 13 -11 29 -19 36 -9 6 -13 16 -9 23 9 14 26 5 26 -14z m9530 -10 c0
-9 -7 -18 -15 -21 -8 -4 -15 -12 -15 -19 0 -19 -20 -29 -32 -17 -7 7 -2 20 18
41 33 34 44 38 44 16z m-180 -5 c0 -22 -33 -60 -51 -60 -11 0 -19 -6 -19 -14
0 -8 -15 -26 -32 -41 -18 -14 -58 -49 -88 -76 -66 -59 -116 -99 -124 -99 -3 0
-21 -16 -40 -35 -20 -19 -40 -35 -45 -35 -5 0 -23 -13 -39 -30 -17 -16 -40
-30 -51 -30 -12 0 -21 -6 -21 -14 0 -14 -97 -86 -116 -86 -5 0 -15 -9 -22 -20
-7 -11 -17 -20 -24 -20 -6 0 -26 -11 -44 -25 -18 -14 -37 -25 -42 -25 -5 0
-17 -9 -27 -20 -11 -12 -22 -17 -28 -11 -16 16 9 45 65 75 29 15 64 38 78 51
14 12 39 30 55 38 17 8 39 24 49 36 11 12 25 21 32 21 7 0 15 8 18 18 3 9 24
23 46 30 22 6 48 19 58 28 9 8 46 42 82 74 36 33 72 60 80 60 9 0 24 14 34 31
10 17 29 35 43 42 32 14 103 85 103 103 0 8 6 14 14 14 7 0 19 7 26 15 14 17
30 20 30 5z m288 -72 c-6 -18 -28 -21 -28 -4 0 9 7 16 16 16 9 0 14 -5 12 -12z
m-10051 -60 c6 -13 18 -50 28 -83 9 -33 20 -68 26 -77 5 -10 9 -29 9 -43 0
-18 8 -29 26 -37 14 -6 33 -29 43 -51 10 -21 57 -78 105 -127 51 -51 83 -91
77 -95 -14 -8 -31 2 -31 19 0 17 -41 53 -65 58 -12 2 -21 13 -23 26 -2 13 -19
40 -38 60 -19 20 -34 39 -34 43 0 4 -9 11 -20 14 -31 10 -130 217 -130 272 0
47 11 55 27 21z m579 -45 c-5 -4 -11 -2 -13 5 -3 6 -10 12 -18 12 -18 0 -38
27 -30 41 5 7 18 1 38 -20 17 -17 27 -34 23 -38z m9599 46 c-4 -5 -13 -9 -22
-9 -13 0 -13 3 -3 15 13 15 35 11 25 -6z m-412 -37 c-3 -12 -12 -22 -20 -22
-14 0 -11 10 10 38 13 17 17 11 10 -16z m-9315 -10 c4 -23 -4 -27 -27 -13 -17
11 -7 45 12 39 6 -3 13 -14 15 -26z m222 -92 c0 -5 -4 -10 -10 -10 -5 0 -10 5
-10 10 0 6 5 10 10 10 6 0 10 -4 10 -10z m8931 -53 c-11 -12 -23 -18 -27 -15
-8 9 29 46 40 40 4 -2 -1 -14 -13 -25z m577 21 c-6 -18 -28 -21 -28 -4 0 9 7
16 16 16 9 0 14 -5 12 -12z m-9773 -39 c10 -15 -1 -23 -20 -15 -9 3 -13 10
-10 16 8 13 22 13 30 -1z m9535 -29 c0 -5 -7 -10 -16 -10 -8 0 -12 5 -9 10 3
6 10 10 16 10 5 0 9 -4 9 -10z m-450 -30 c0 -5 -4 -10 -10 -10 -5 0 -10 5 -10
10 0 6 5 10 10 10 6 0 10 -4 10 -10z m-50 -34 c0 -14 -29 -31 -38 -21 -6 6 18
35 29 35 5 0 9 -6 9 -14z m200 -20 c0 -2 -7 -9 -15 -16 -13 -11 -14 -10 -9 4
5 14 24 23 24 12z m-8850 -61 c20 -25 4 -29 -21 -6 -18 16 -19 21 -7 21 9 0
21 -7 28 -15z m8530 -20 c0 -17 -46 -42 -57 -32 -8 9 27 46 45 46 6 1 12 -6
12 -14z m-9210 -67 c0 -14 -16 -9 -36 13 -19 21 -19 21 9 8 15 -7 27 -16 27
-21z m9352 0 c-6 -6 -15 -8 -19 -4 -4 4 -1 11 7 16 19 12 27 3 12 -12z m888
-29 c0 -5 -4 -9 -10 -9 -5 0 -10 7 -10 16 0 8 5 12 10 9 6 -3 10 -10 10 -16z
m-10170 -51 c0 -6 -7 -5 -15 2 -8 7 -15 17 -15 22 0 6 7 5 15 -2 8 -7 15 -17
15 -22z m780 22 c0 -5 -5 -10 -11 -10 -5 0 -7 5 -4 10 3 6 8 10 11 10 2 0 4
-4 4 -10z m7950 2 c0 -19 -101 -82 -131 -82 -6 0 -27 -13 -46 -30 -18 -16 -42
-30 -53 -30 -10 0 -22 -5 -25 -10 -4 -6 -22 -17 -41 -25 -19 -8 -34 -19 -34
-24 0 -6 -12 -11 -26 -11 -33 0 -29 33 4 38 13 2 26 10 29 18 3 8 16 14 30 14
24 0 70 27 105 62 10 10 26 18 36 18 10 0 23 5 30 12 15 15 92 55 110 57 6 0
12 -3 12 -7z m199 -18 c-15 -18 -22 -13 -13 10 3 9 10 13 16 10 5 -3 4 -12 -3
-20z m711 11 c0 -8 -11 -17 -25 -21 -14 -3 -25 -10 -25 -15 0 -5 -4 -9 -10 -9
-5 0 -1 13 8 30 18 31 52 41 52 15z m-9432 -25 c18 -16 40 -30 49 -30 21 0 53
-29 53 -47 0 -19 -11 -16 -50 17 -19 17 -40 30 -48 30 -14 0 -51 38 -52 53 0
14 16 7 48 -23z m-121 -54 c26 -24 44 -48 40 -53 -5 -4 -25 11 -45 35 -20 23
-45 42 -54 42 -10 0 -18 5 -18 10 0 21 30 8 77 -34z m818 2 c28 -24 32 -38 11
-38 -7 0 -21 11 -30 25 -27 41 -20 47 19 13z m8405 12 c0 -5 -4 -10 -10 -10
-5 0 -10 5 -10 10 0 6 5 10 10 10 6 0 10 -4 10 -10z m-512 -27 c-4 -20 -53
-51 -64 -40 -10 9 35 57 53 57 8 0 13 -8 11 -17z m1280 5 c-7 -19 -38 -22 -38
-4 0 10 9 16 21 16 12 0 19 -5 17 -12z m-798 -17 c0 -12 -29 -35 -36 -28 -11
10 5 37 21 37 8 0 15 -4 15 -9z m195 -31 c-3 -5 -10 -10 -16 -10 -5 0 -9 5 -9
10 0 6 7 10 16 10 8 0 12 -4 9 -10z m-9075 -15 c16 -8 35 -23 42 -34 7 -10 25
-21 38 -23 31 -4 41 -38 11 -38 -11 0 -25 9 -31 20 -6 11 -16 20 -23 20 -7 0
-30 16 -51 35 -41 37 -35 45 14 20z m8570 5 c0 -10 -32 -30 -49 -30 -8 0 -7 7
1 20 13 20 48 28 48 10z m-8740 -46 c0 -8 -4 -12 -10 -9 -5 3 -10 10 -10 16 0
5 5 9 10 9 6 0 10 -7 10 -16z m838 -2 c2 -7 -3 -12 -12 -12 -9 0 -16 7 -16 16
0 17 22 14 28 -4z m8882 -22 c-11 -21 -40 -28 -40 -10 0 8 27 25 48 29 1 1 -2
-8 -8 -19z m-9650 -5 c6 -8 9 -19 5 -25 -9 -14 -45 6 -45 25 0 19 24 19 40 0z
m8000 0 c0 -9 -24 -26 -57 -41 -32 -15 -66 -31 -75 -35 -10 -5 -26 -9 -37 -9
-11 0 -21 -7 -23 -16 -3 -17 -68 -44 -108 -44 -15 0 -30 -4 -35 -9 -16 -15
-89 -26 -81 -12 4 6 16 11 26 11 10 0 21 4 24 9 4 5 24 12 47 16 23 4 45 15
52 26 8 12 23 19 44 19 18 0 33 4 33 8 0 9 84 52 101 52 6 0 22 9 36 20 30 24
53 26 53 5z m1055 -6 c0 -8 -15 -21 -33 -31 -18 -9 -41 -23 -51 -32 -22 -20
-31 -20 -31 -1 0 9 10 19 23 24 12 5 33 21 46 35 26 27 46 30 46 5z m162 4 c5
-15 -95 -85 -109 -77 -7 5 7 23 38 50 48 43 64 49 71 27z m-969 -5 c-6 -18
-28 -21 -28 -4 0 9 7 16 16 16 9 0 14 -5 12 -12z m-8480 -36 c3 -9 -3 -13 -19
-10 -12 1 -24 9 -27 16 -3 9 3 13 19 10 12 -1 24 -9 27 -16z m8732 9 c0 -10
-24 -21 -43 -21 -7 0 -3 7 7 15 22 17 36 19 36 6z m-8178 -26 c37 -8 123 -67
112 -78 -8 -8 -65 24 -71 39 -3 8 -15 14 -27 14 -11 0 -32 10 -46 21 -20 17
-21 20 -5 14 11 -4 28 -8 37 -10z m648 -22 c21 -19 27 -43 10 -43 -6 0 -14 8
-17 18 -4 9 -14 22 -22 29 -11 8 -12 12 -4 13 7 0 22 -8 33 -17z m7105 -8
c-34 -28 -45 -31 -45 -12 0 15 34 35 60 36 9 1 3 -9 -15 -24z m-7911 -14 c22
-18 32 -32 26 -36 -14 -8 -56 19 -70 45 -15 28 1 25 44 -9z m8916 21 c0 -30
-127 -92 -186 -92 -13 0 -28 -9 -34 -20 -8 -15 -21 -20 -50 -20 -65 0 -49 27
30 49 113 33 139 43 151 58 22 26 89 45 89 25z m-448 -34 c-15 -15 -24 -6 -16
16 5 12 10 14 17 7 8 -8 8 -14 -1 -23z m888 13 c0 -6 -4 -13 -10 -16 -5 -3
-10 1 -10 9 0 9 5 16 10 16 6 0 10 -4 10 -9z m-1245 -51 c-3 -5 -13 -10 -21
-10 -8 0 -12 5 -9 10 3 6 13 10 21 10 8 0 12 -4 9 -10z m-7941 -15 c34 -14 50
-45 24 -45 -19 0 -78 38 -78 50 0 14 11 13 54 -5z m794 -4 c3 -8 -1 -12 -9 -9
-7 2 -15 10 -17 17 -3 8 1 12 9 9 7 -2 15 -10 17 -17z m-480 -13 c7 -7 12 -16
12 -20 0 -12 -58 -10 -65 2 -16 26 30 41 53 18z m1250 0 c20 -20 13 -29 -20
-26 -40 4 -54 38 -16 38 13 0 29 -5 36 -12z m5662 -8 c-10 -19 -60 -29 -60
-12 0 16 24 32 47 32 21 0 22 -3 13 -20z m293 6 c3 -12 -30 -32 -39 -24 -11
12 5 40 21 36 9 -2 17 -7 18 -12z m647 5 c0 -5 -7 -11 -15 -15 -15 -5 -20 5
-8 17 9 10 23 9 23 -2z m880 -21 c0 -5 -2 -10 -4 -10 -3 0 -8 5 -11 10 -3 6
-1 10 4 10 6 0 11 -4 11 -10z m-8588 -27 c10 -9 39 -20 66 -25 63 -12 74 -14
92 -21 8 -3 33 -8 55 -11 81 -10 134 -23 159 -39 14 -9 36 -17 50 -17 14 0 28
-4 31 -10 4 -6 -6 -10 -24 -10 -16 0 -33 5 -36 10 -3 6 -28 10 -55 10 -30 0
-63 8 -84 19 -32 18 -117 38 -143 33 -7 -2 -31 6 -55 17 -24 11 -56 21 -73 23
-19 2 -31 9 -33 21 -4 22 25 23 50 0z m1245 6 c6 -6 42 -22 80 -34 51 -18 63
-25 49 -31 -27 -11 -196 47 -196 68 0 12 54 10 67 -3z m2822 -13 c14 -15 19
-26 12 -30 -14 -9 -61 22 -61 40 0 22 24 17 49 -10z m2875 16 c10 -16 -9 -29
-87 -61 -37 -15 -47 -14 -47 4 0 8 16 19 39 25 21 5 44 17 51 25 13 16 36 20
44 7z m991 -12 c0 -9 -14 -17 -35 -21 -19 -4 -61 -14 -93 -23 -32 -9 -63 -13
-69 -10 -13 9 29 33 58 34 11 0 24 3 28 7 12 12 70 31 91 29 11 0 20 -8 20
-16z m275 12 c0 -14 -23 -32 -41 -32 -10 0 -25 -7 -34 -16 -10 -10 -50 -21
-105 -28 -49 -7 -95 -18 -102 -24 -21 -17 -100 -42 -134 -42 -17 0 -34 -3 -38
-7 -11 -11 -97 -32 -132 -33 -23 0 -33 -6 -37 -20 -4 -17 -14 -20 -65 -20 -34
0 -63 4 -67 9 -9 16 30 31 79 31 26 0 54 4 64 9 34 17 89 31 125 31 20 0 39 5
42 10 3 6 16 10 28 10 12 0 33 9 47 20 14 11 41 20 62 20 20 0 40 5 43 10 3 6
25 10 48 10 23 0 51 7 61 15 11 8 26 15 34 15 8 0 25 9 39 20 25 20 83 28 83
12z m330 1 c0 -5 -11 -13 -24 -19 -23 -11 -24 -10 -13 7 12 19 37 26 37 12z
m-8842 -21 c3 -9 -2 -13 -14 -10 -9 1 -19 9 -22 16 -3 9 2 13 14 10 9 -1 19
-9 22 -16z m4082 8 c0 -5 -4 -10 -10 -10 -5 0 -10 5 -10 10 0 6 5 10 10 10 6
0 10 -4 10 -10z m-4020 -30 c0 -5 -4 -10 -10 -10 -5 0 -10 5 -10 10 0 6 5 10
10 10 6 0 10 -4 10 -10z m750 0 c0 -5 -2 -10 -4 -10 -3 0 -8 5 -11 10 -3 6 -1
10 4 10 6 0 11 -4 11 -10z m6060 1 c0 -13 -67 -34 -90 -28 -10 3 -27 -1 -38
-9 -19 -13 -32 -10 -32 8 0 4 8 8 19 8 10 0 34 7 52 15 38 16 89 20 89 6z
m-6743 -27 c-9 -9 -28 6 -21 18 4 6 10 6 17 -1 6 -6 8 -13 4 -17z m98 -4 c3
-5 19 -10 34 -10 16 0 40 -9 54 -20 14 -11 34 -20 45 -20 12 0 24 -4 27 -10 4
-6 -11 -10 -37 -10 -42 -1 -177 55 -178 73 0 11 48 9 55 -3z m7757 -5 c-2 -5
-9 -9 -15 -7 -6 2 -29 -6 -51 -17 -51 -24 -84 -32 -165 -38 -44 -3 -61 -2 -57
6 4 6 21 11 37 11 16 0 47 9 69 20 22 11 55 20 74 20 19 0 38 5 41 11 9 13 71
8 67 -6z m-6592 -31 c0 -14 -21 -19 -33 -7 -9 9 13 34 24 27 5 -3 9 -12 9 -20z
m2840 -11 c0 -13 -3 -13 -15 -3 -8 7 -15 19 -15 27 0 13 3 13 15 3 8 -7 15
-19 15 -27z m274 24 c10 -7 17 -21 15 -30 -4 -16 -6 -16 -26 -2 -13 9 -23 23
-23 31 0 18 11 18 34 1z m531 -26 c-10 -16 -25 -3 -25 22 0 20 1 20 16 5 9 -9
13 -21 9 -27z m1965 29 c0 -21 -5 -25 -40 -37 -43 -15 -63 -16 -55 -3 3 6 15
10 26 10 10 0 19 6 19 14 0 14 14 24 38 25 6 1 12 -3 12 -9z m1666 -16 c-5
-14 -9 -15 -19 -5 -9 9 -9 14 3 21 18 11 24 6 16 -16z m-3750 -11 c20 -26 18
-55 -3 -51 -12 2 -19 14 -21 36 -4 36 4 41 24 15z m-5431 -13 c3 -5 1 -10 -4
-10 -6 0 -11 5 -11 10 0 6 2 10 4 10 3 0 8 -4 11 -10z m9130 0 c3 -5 -1 -10
-10 -10 -9 0 -13 5 -10 10 3 6 8 10 10 10 2 0 7 -4 10 -10z m-8100 -20 c3 -5
17 -10 30 -10 13 0 27 -4 30 -10 3 -5 29 -10 56 -10 53 0 93 -15 84 -31 -11
-16 -79 -10 -113 11 -18 11 -50 20 -71 20 -42 0 -105 22 -94 33 10 11 71 8 78
-3z m410 0 c3 -5 28 -10 56 -10 27 0 49 -4 49 -10 0 -5 -20 -10 -44 -10 -25 0
-48 5 -51 10 -3 6 -24 10 -46 10 -21 0 -39 5 -39 10 0 6 15 10 34 10 19 0 38
-4 41 -10z m675 -12 c22 -13 40 -26 40 -30 0 -11 -14 -10 -25 1 -6 5 -21 11
-35 13 -14 2 -26 11 -28 21 -4 22 1 22 48 -5z m438 11 c-2 -6 -8 -10 -13 -10
-5 0 -11 4 -13 10 -2 6 4 11 13 11 9 0 15 -5 13 -11z m5642 1 c0 -5 -12 -10
-27 -10 -16 0 -38 -3 -50 -6 -17 -5 -23 -2 -23 10 0 13 11 16 50 16 28 0 50
-4 50 -10z m-5550 -20 c0 -5 -7 -10 -15 -10 -8 0 -15 5 -15 10 0 6 7 10 15 10
8 0 15 -4 15 -10z m4665 0 c-3 -5 -16 -10 -28 -10 -13 0 -30 -9 -40 -20 -16
-20 -47 -26 -60 -13 -12 11 14 33 39 33 12 0 26 5 29 10 3 6 20 10 36 10 18 0
28 -4 24 -10z m745 0 c0 -5 -13 -10 -30 -10 -16 0 -46 -9 -66 -20 -29 -17 -50
-20 -110 -18 -71 3 -107 20 -54 26 14 1 50 5 80 8 30 3 59 10 65 15 12 12 115
11 115 -1z m-5256 -16 c10 -26 -3 -34 -58 -34 -47 0 -76 12 -76 32 0 4 26 9
58 11 31 2 60 4 63 5 4 1 10 -5 13 -14z m-1102 -8 c23 -17 13 -26 -28 -26 -42
0 -64 9 -64 26 0 18 68 18 92 0z m3192 -12 c3 -8 12 -14 21 -14 8 0 15 -7 15
-15 0 -8 -4 -15 -9 -15 -5 0 -14 7 -21 15 -7 8 -18 15 -25 15 -14 0 -27 25
-18 33 8 9 31 -3 37 -19z m591 -55 c5 -37 -9 -45 -29 -17 -16 23 -22 79 -9 92
9 9 34 -39 38 -75z m3485 66 c0 -8 -7 -15 -15 -15 -16 0 -20 12 -8 23 11 12
23 8 23 -8z m-3752 -28 c9 -7 10 -13 3 -20 -7 -7 -19 -1 -38 18 l-28 28 25 -8
c14 -4 31 -12 38 -18z m-3760 -9 c30 -30 2 -40 -68 -24 -30 7 -56 18 -58 24
-5 16 110 16 126 0z m587 3 c3 -5 18 -9 33 -9 15 1 37 -4 49 -11 12 -6 59 -11
104 -11 60 0 80 -3 72 -11 -7 -7 -43 -9 -109 -5 -55 4 -135 9 -179 12 -69 4
-145 25 -145 39 0 9 169 5 175 -4z m1605 -6 c7 -8 21 -15 31 -15 11 0 28 -9
39 -20 11 -11 27 -20 36 -20 21 0 57 -20 71 -39 6 -9 36 -29 66 -45 55 -27 75
-50 56 -62 -5 -3 -30 10 -54 30 -24 20 -50 36 -58 36 -8 0 -34 15 -56 34 -23
19 -51 38 -64 41 -45 12 -116 48 -121 61 -7 19 38 18 54 -1z m4014 0 c-8 -19
-26 -23 -134 -29 -47 -2 -132 -9 -190 -15 -171 -18 -330 -19 -330 -2 0 11 15
13 75 9 41 -3 78 -1 82 3 5 5 40 10 78 10 39 1 83 8 98 16 15 8 31 12 35 10 4
-3 16 -1 27 4 11 4 75 8 142 8 105 1 122 -1 117 -14z m516 -4 c-29 -23 -67
-31 -175 -38 -44 -2 -85 -8 -90 -13 -14 -12 -81 -7 -75 5 3 6 21 11 40 11 63
3 144 20 175 37 18 10 53 16 90 16 l60 1 -25 -19z m-6610 -31 c0 -5 -18 -10
-39 -10 -22 0 -43 5 -46 10 -4 6 12 10 39 10 25 0 46 -4 46 -10z m64 3 c4 -5
24 -8 44 -8 21 0 38 -4 40 -9 1 -6 -20 -10 -48 -9 -70 1 -70 1 -70 18 0 16 21
20 34 8z m7116 -3 c0 -5 -2 -10 -4 -10 -3 0 -8 5 -11 10 -3 6 -1 10 4 10 6 0
11 -4 11 -10z m390 6 c0 -11 -19 -15 -25 -6 -3 5 1 10 9 10 9 0 16 -2 16 -4z
m-6582 -18 c-4 -10 -56 -12 -186 -8 -7 0 -10 5 -7 10 9 15 198 13 193 -2z
m3070 -6 c6 -18 -15 -14 -22 4 -4 10 -1 14 6 12 6 -2 14 -10 16 -16z m1285 -2
c15 0 27 -4 27 -10 0 -6 -63 -10 -170 -10 -199 0 -236 18 -47 23 67 2 131 2
142 0 11 -1 32 -3 48 -3z m-5013 -10 c0 -5 -22 -10 -50 -10 -27 0 -50 5 -50
10 0 6 23 10 50 10 28 0 50 -4 50 -10z m5728 -7 c-2 -10 -12 -19 -23 -21 -11
-2 -29 -7 -40 -12 -29 -13 -173 -28 -445 -46 -47 -3 -89 -10 -94 -15 -14 -13
-453 -12 -461 1 -4 7 55 10 169 10 106 0 177 4 181 10 4 6 62 10 140 10 78 0
136 4 140 10 3 6 39 10 80 10 41 0 77 5 80 10 3 6 17 10 30 10 13 0 27 5 30
10 3 6 43 10 88 10 45 0 89 5 97 10 22 15 32 12 28 -7z m122 7 c0 -5 -18 -10
-40 -10 -22 0 -40 5 -40 10 0 6 18 10 40 10 22 0 40 -4 40 -10z m830 0 c0 -5
-7 -10 -15 -10 -8 0 -15 5 -15 10 0 6 7 10 15 10 8 0 15 -4 15 -10z m430 0 c0
-5 -4 -10 -10 -10 -5 0 -10 5 -10 10 0 6 5 10 10 10 6 0 10 -4 10 -10z m-4955
-38 c-6 -7 -35 18 -35 31 0 5 9 2 20 -8 11 -10 18 -20 15 -23z m1811 1 c-11
-11 -19 6 -11 24 8 17 8 17 12 0 3 -10 2 -21 -1 -24z m-3733 12 c20 -4 40 -11
43 -16 3 -5 30 -9 60 -9 30 0 54 -4 54 -10 0 -13 -143 -13 -156 0 -5 5 -45 10
-89 12 -68 3 -80 6 -83 21 -3 17 2 18 65 14 37 -3 85 -9 106 -12z m2947 0 c14
-16 10 -18 -14 -9 -9 3 -16 10 -16 15 0 14 16 11 30 -6z m4260 0 c0 -8 -7 -15
-15 -15 -16 0 -20 12 -8 23 11 12 23 8 23 -8z m-940 -35 c0 -5 -7 -10 -15 -10
-8 0 -15 5 -15 10 0 6 7 10 15 10 8 0 15 -4 15 -10z m-5880 -20 c0 -5 -7 -10
-15 -10 -8 0 -15 5 -15 10 0 6 7 10 15 10 8 0 15 -4 15 -10z m6270 3 c0 -10
-52 -34 -59 -28 -6 7 31 34 47 35 6 0 12 -3 12 -7z m-3281 -45 c7 -24 17 -51
23 -61 5 -10 8 -56 7 -101 -1 -49 3 -91 10 -105 8 -15 11 -47 7 -94 -21 -278
-38 -367 -68 -367 -10 0 -8 30 13 180 5 41 12 139 15 217 5 127 3 149 -15 201
-21 58 -29 172 -13 172 5 0 14 -19 21 -42z m-314 16 c28 -18 33 -34 11 -34 -7
0 -21 11 -30 25 -19 29 -15 31 19 9z m3442 -11 c6 -18 -37 -37 -51 -23 -8 8
-6 15 9 26 21 15 37 14 42 -3z m-3967 -9 c0 -8 -5 -12 -10 -9 -6 4 -8 11 -5
16 9 14 15 11 15 -7z m270 1 c0 -8 -7 -15 -15 -15 -16 0 -20 12 -8 23 11 12
23 8 23 -8z m705 6 c3 -5 1 -12 -5 -16 -5 -3 -10 1 -10 9 0 18 6 21 15 7z
m2358 -6 c1 -5 -6 -11 -15 -13 -11 -2 -18 3 -18 13 0 17 30 18 33 0z m1005
-32 c-4 -22 -38 -30 -38 -10 0 14 13 24 33 26 5 1 7 -7 5 -16z m-7263 -3 c3
-5 1 -10 -4 -10 -6 0 -11 5 -11 10 0 6 2 10 4 10 3 0 8 -4 11 -10z m2279 -6
c8 -22 8 -24 -8 -24 -18 0 -29 16 -21 30 9 15 22 12 29 -6z m466 6 c0 -5 -5
-10 -11 -10 -5 0 -7 5 -4 10 3 6 8 10 11 10 2 0 4 -4 4 -10z m3080 -5 c0 -10
-10 -15 -32 -15 -31 1 -32 1 -14 15 25 19 46 19 46 0z m830 -2 c0 -5 -12 -14
-27 -20 -32 -16 -87 -17 -78 -3 3 6 21 10 40 10 19 0 37 5 40 10 7 12 25 13
25 3z m-2971 -71 c-2 -32 2 -67 9 -79 17 -31 15 -251 -2 -282 -8 -15 -12 -40
-8 -64 4 -31 2 -39 -9 -35 -8 3 -14 10 -13 16 1 7 2 125 3 263 1 173 4 248 12
244 6 -4 9 -32 8 -63z m-2329 43 c0 -8 -15 -21 -33 -29 -19 -7 -50 -28 -70
-46 -24 -20 -43 -30 -53 -26 -14 5 -9 13 22 41 21 19 48 34 60 35 11 0 29 9
39 20 21 24 35 26 35 5z m4285 5 c4 -6 -18 -10 -60 -10 -42 0 -64 4 -60 10 3
6 30 10 60 10 30 0 57 -4 60 -10z m-1480 -30 c-5 -8 -11 -8 -17 -2 -6 6 -7 16
-3 22 5 8 11 8 17 2 6 -6 7 -16 3 -22z m-5825 10 c0 -5 -5 -10 -11 -10 -5 0
-7 5 -4 10 3 6 8 10 11 10 2 0 4 -4 4 -10z m3370 0 c0 -5 -4 -10 -10 -10 -5 0
-10 5 -10 10 0 6 5 10 10 10 6 0 10 -4 10 -10z m490 -17 c15 -16 38 -35 51
-44 13 -10 21 -20 17 -24 -13 -14 -59 6 -70 30 -6 14 -19 27 -30 30 -19 7 -25
35 -7 35 6 0 23 -12 39 -27z m3135 17 c4 -6 -10 -10 -35 -10 -25 0 -39 4 -35
10 3 6 19 10 35 10 16 0 32 -4 35 -10z m-3385 -30 c-16 -11 -40 -13 -40 -5 0
8 44 24 50 18 2 -2 -2 -8 -10 -13z m440 5 c16 -8 31 -24 35 -35 3 -11 10 -20
15 -20 18 0 100 -55 100 -67 0 -20 -25 -15 -45 7 -10 12 -35 30 -54 42 -20 12
-48 34 -63 50 -40 42 -37 48 12 23z m3960 5 c0 -5 -4 -10 -10 -10 -5 0 -10 5
-10 10 0 6 5 10 10 10 6 0 10 -4 10 -10z m-3709 -32 c9 -17 8 -19 -13 -16 -15
2 -24 11 -26 25 -3 18 0 21 13 17 8 -4 20 -15 26 -26z m3484 3 c7 -12 -12 -24
-25 -16 -11 7 -4 25 10 25 5 0 11 -4 15 -9z m-80 -20 c7 -12 -12 -24 -25 -16
-11 7 -4 25 10 25 5 0 11 -4 15 -9z m830 0 c7 -12 -12 -24 -25 -16 -11 7 -4
25 10 25 5 0 11 -4 15 -9z m-5720 -21 c3 -5 -9 -17 -27 -26 -18 -9 -41 -23
-51 -32 -13 -11 -21 -12 -28 -5 -8 8 -3 16 18 26 16 9 35 23 42 31 15 18 37
21 46 6z m4645 -4 c0 -11 -19 -15 -25 -6 -3 5 1 10 9 10 9 0 16 -2 16 -4z
m-3450 -28 c12 -13 27 -30 35 -39 8 -9 15 -19 15 -22 0 -16 -19 -4 -66 38 -42
39 -45 45 -26 45 12 0 31 -10 42 -22z m1168 -21 c2 -12 -1 -15 -12 -11 -22 8
-30 36 -9 32 10 -2 19 -11 21 -21z m1620 1 c3 -16 -5 -18 -67 -18 -39 0 -71 4
-71 10 0 18 36 30 85 27 38 -1 51 -6 53 -19z m-951 -41 c-2 -49 -21 -53 -24
-4 -2 40 4 60 16 53 5 -4 8 -25 8 -49z m733 43 c0 -5 -4 -10 -10 -10 -5 0 -10
5 -10 10 0 6 5 10 10 10 6 0 10 -4 10 -10z m2310 0 c0 -5 -5 -10 -11 -10 -5 0
-7 5 -4 10 3 6 8 10 11 10 2 0 4 -4 4 -10z m-6980 -10 c0 -5 -7 -10 -15 -10
-8 0 -15 5 -15 10 0 6 7 10 15 10 8 0 15 -4 15 -10z m-1892 -33 c2 -11 -3 -17
-17 -17 -23 0 -35 15 -26 31 10 15 39 6 43 -14z m4257 -10 c28 -46 28 -47 13
-47 -20 0 -72 56 -64 69 12 19 31 12 51 -22z m1717 15 c6 -22 -8 -62 -21 -62
-14 0 -23 36 -16 60 8 25 31 26 37 2z m-3352 -2 c0 -5 -4 -10 -10 -10 -5 0
-10 5 -10 10 0 6 5 10 10 10 6 0 10 -4 10 -10z m1838 -8 c3 -9 -2 -13 -14 -10
-9 1 -19 9 -22 16 -3 9 2 13 14 10 9 -1 19 -9 22 -16z m-2123 -2 c-3 -5 -13
-10 -21 -10 -8 0 -14 5 -14 10 0 6 9 10 21 10 11 0 17 -4 14 -10z m1803 -50
c33 -16 63 -38 67 -49 3 -10 22 -27 41 -36 38 -18 53 -40 36 -57 -7 -7 -15 0
-27 20 -10 16 -33 35 -51 42 -18 8 -48 28 -66 47 -17 18 -37 33 -44 33 -6 0
-14 7 -18 15 -7 20 -8 20 62 -15z m-1598 10 c0 -5 -5 -10 -11 -10 -6 0 -25
-10 -42 -22 -61 -44 -97 -58 -97 -38 0 6 6 10 13 10 6 0 23 12 36 25 13 14 34
25 47 25 13 0 24 5 24 10 0 6 7 10 15 10 8 0 15 -4 15 -10z m2210 0 c0 -5 -4
-10 -10 -10 -5 0 -10 5 -10 10 0 6 5 10 10 10 6 0 10 -4 10 -10z m2800 0 c0
-5 -4 -10 -9 -10 -6 0 -13 5 -16 10 -3 6 1 10 9 10 9 0 16 -4 16 -10z m-3215
-20 c4 -6 -5 -10 -19 -10 -14 0 -26 5 -26 10 0 6 9 10 19 10 11 0 23 -4 26
-10z m2955 0 c0 -5 -4 -10 -10 -10 -5 0 -10 5 -10 10 0 6 5 10 10 10 6 0 10
-4 10 -10z m-2225 -13 c24 -18 11 -41 -16 -27 -10 6 -19 17 -19 25 0 19 11 19
35 2z m1946 3 c35 -19 20 -30 -42 -30 -43 0 -60 3 -57 12 8 23 69 34 99 18z
m1309 -20 c0 -5 -4 -10 -10 -10 -5 0 -10 5 -10 10 0 6 5 10 10 10 6 0 10 -4
10 -10z m570 -20 c0 -5 -4 -10 -10 -10 -5 0 -10 5 -10 10 0 6 5 10 10 10 6 0
10 -4 10 -10z m-6557 -37 c-15 -7 -35 -23 -44 -35 -11 -14 -22 -19 -34 -14
-13 5 -15 10 -8 17 18 18 97 56 106 51 5 -2 -4 -11 -20 -19z m2110 -1 c15 -15
27 -33 27 -40 0 -20 -38 -13 -45 8 -3 11 -15 25 -26 30 -10 6 -19 15 -19 20 0
20 37 9 63 -18z m192 18 c3 -5 1 -10 -4 -10 -6 0 -11 5 -11 10 0 6 2 10 4 10
3 0 8 -4 11 -10z m1995 2 c0 -4 18 -15 40 -25 40 -17 49 -30 30 -42 -6 -4 -24
7 -41 24 -17 17 -39 31 -50 31 -10 0 -19 5 -19 10 0 6 9 10 20 10 11 0 20 -3
20 -8z m2110 -22 c0 -5 -9 -10 -21 -10 -11 0 -17 5 -14 10 3 6 13 10 21 10 8
0 14 -4 14 -10z m-4780 -25 c0 -8 -7 -15 -15 -15 -16 0 -20 12 -8 23 11 12 23
8 23 -8z m1250 -5 c0 -21 -33 -29 -45 -10 -9 15 4 30 26 30 12 0 19 -7 19 -20z
m743 13 c2 -5 -4 -26 -14 -48 -23 -51 -33 -27 -20 48 0 4 7 7 15 7 8 0 17 -3
19 -7z m-1273 -13 c0 -5 -4 -10 -10 -10 -5 0 -10 5 -10 10 0 6 5 10 10 10 6 0
10 -4 10 -10z m260 0 c0 -5 -4 -10 -10 -10 -5 0 -10 5 -10 10 0 6 5 10 10 10
6 0 10 -4 10 -10z m2800 0 c0 -5 -4 -10 -10 -10 -5 0 -10 5 -10 10 0 6 5 10
10 10 6 0 10 -4 10 -10z m1358 -1 c-2 -6 -8 -10 -13 -10 -5 0 -11 4 -13 10 -2
6 4 11 13 11 9 0 15 -5 13 -11z m-2278 -38 c0 -5 11 -12 25 -15 14 -4 25 -11
25 -17 0 -12 -29 -5 -72 18 -28 13 -34 24 -22 36 8 8 44 -10 44 -22z m-4610
10 c0 -5 -7 -14 -15 -21 -18 -15 -42 1 -31 19 8 13 46 15 46 2z m2156 -12 c10
-12 35 -30 56 -40 20 -10 49 -34 65 -52 15 -19 39 -40 53 -47 32 -17 50 -36
50 -52 -1 -9 -5 -7 -14 5 -7 9 -21 17 -30 17 -9 0 -24 9 -33 20 -11 13 -30 20
-53 20 -24 0 -39 -6 -48 -20 -7 -11 -21 -20 -32 -20 -10 0 -24 -9 -30 -20 -6
-11 -17 -20 -25 -20 -24 0 -17 30 8 39 13 5 29 16 36 25 7 9 22 16 32 16 13 0
19 7 19 24 0 38 -20 42 -51 8 -15 -16 -42 -36 -58 -43 -30 -14 -43 -42 -38
-84 1 -12 -8 -24 -25 -32 -15 -8 -40 -30 -57 -51 -27 -35 -34 -38 -80 -39 -71
-1 -67 18 20 92 39 33 80 70 92 83 11 12 25 22 31 22 6 0 30 17 54 39 45 41
55 78 27 101 -8 7 -15 16 -15 21 0 16 27 9 46 -12z m4109 1 c0 -22 -29 -18
-33 3 -3 14 1 18 15 15 10 -2 18 -10 18 -18z m-3933 -9 c7 -10 29 -26 48 -36
30 -15 100 -79 100 -90 0 -11 -39 12 -70 42 -19 18 -54 43 -77 54 -24 11 -43
27 -43 35 0 20 27 17 42 -5z m1138 5 c0 -8 -4 -17 -9 -21 -12 -7 -24 12 -16
25 9 15 25 12 25 -4z m1565 -1 c0 -10 -50 -15 -72 -7 -7 2 -10 8 -7 14 8 12
79 6 79 -7z m-2425 -51 c0 -16 -26 -19 -35 -4 -3 6 -4 14 0 20 8 13 35 1 35
-16z m2098 8 c3 -9 -2 -13 -14 -10 -9 1 -19 9 -22 16 -3 9 2 13 14 10 9 -1 19
-9 22 -16z m1337 9 c7 -12 -12 -24 -25 -16 -11 7 -4 25 10 25 5 0 11 -4 15 -9z
m647 -13 c-6 -6 -16 -7 -22 -3 -9 6 -9 9 1 16 17 10 34 0 21 -13z m-6823 -5
c-34 -26 -67 -43 -79 -43 -19 0 0 19 38 40 46 24 73 26 41 3z m4914 -13 c30
-11 62 -29 72 -40 10 -11 29 -20 42 -20 13 0 31 -4 41 -9 9 -6 28 -12 42 -15
14 -3 34 -12 45 -20 16 -12 17 -17 8 -27 -10 -10 -22 -6 -57 19 -24 18 -54 32
-66 32 -24 0 -130 49 -130 60 0 4 -13 10 -30 14 -16 3 -30 10 -30 16 0 13 1
13 63 -10z m-1868 -10 c11 -17 -5 -32 -21 -19 -7 6 -11 15 -8 20 7 12 21 11
29 -1z m3615 -4 c0 -14 -59 -50 -68 -42 -5 6 49 55 61 56 4 0 7 -6 7 -14z
m-3875 -6 c3 -5 1 -10 -4 -10 -6 0 -11 5 -11 10 0 6 2 10 4 10 3 0 8 -4 11
-10z m-2895 -24 c0 -3 -4 -8 -10 -11 -5 -3 -10 -1 -10 4 0 6 5 11 10 11 6 0
10 -2 10 -4z m5830 -6 c0 -5 -2 -10 -4 -10 -3 0 -8 5 -11 10 -3 6 -1 10 4 10
6 0 11 -4 11 -10z m-3620 -14 c0 -3 -4 -8 -10 -11 -5 -3 -10 -1 -10 4 0 6 5
11 10 11 6 0 10 -2 10 -4z m3400 -6 c0 -5 -2 -10 -4 -10 -3 0 -8 5 -11 10 -3
6 -1 10 4 10 6 0 11 -4 11 -10z m980 0 c0 -5 -4 -10 -10 -10 -5 0 -10 5 -10
10 0 6 5 10 10 10 6 0 10 -4 10 -10z m-6660 -15 c-7 -8 -18 -15 -25 -15 -7 0
-19 -10 -27 -22 -15 -22 -38 -18 -38 6 0 10 65 40 99 45 2 1 -2 -6 -9 -14z
m4020 -15 c0 -25 -18 -36 -26 -16 -8 21 3 49 16 41 5 -3 10 -15 10 -25z m2560
10 c0 -5 -6 -10 -14 -10 -8 0 -18 5 -21 10 -3 6 3 10 14 10 12 0 21 -4 21 -10z
m-2820 -15 c0 -8 -4 -15 -10 -15 -5 0 -10 7 -10 15 0 8 5 15 10 15 6 0 10 -7
10 -15z m-890 -9 c0 -19 -14 -28 -34 -20 -25 10 -19 34 9 34 15 0 25 -6 25
-14z m215 4 c11 -17 -5 -32 -21 -19 -8 6 -14 15 -14 20 0 12 27 11 35 -1z
m1455 -20 c0 -5 -2 -10 -4 -10 -3 0 -8 5 -11 10 -3 6 -1 10 4 10 6 0 11 -4 11
-10z m1892 -2 c-9 -9 -15 -9 -24 0 -9 9 -7 12 12 12 19 0 21 -3 12 -12z
m-6572 -12 c0 -21 -20 -30 -33 -17 -9 9 -8 14 3 21 21 14 30 12 30 -4z m5600
-8 c62 -36 52 -48 -20 -26 -38 12 -49 26 -33 41 9 10 10 10 53 -15z m-2540 3
c0 -5 9 -12 19 -16 33 -10 33 -32 0 -27 -32 5 -54 26 -44 42 8 13 25 13 25 1z
m-112 -46 c92 -67 142 -108 138 -112 -6 -7 -116 49 -116 58 0 13 -42 50 -68
60 -13 5 -20 13 -17 19 9 14 11 13 63 -25z m-3008 17 c0 -4 -19 -16 -42 -27
-24 -11 -46 -21 -50 -23 -5 -2 -8 0 -8 5 0 5 16 15 35 23 19 8 35 17 35 22 0
4 7 8 15 8 8 0 15 -3 15 -8z m6290 -2 c0 -5 -4 -10 -10 -10 -5 0 -10 5 -10 10
0 6 5 10 10 10 6 0 10 -4 10 -10z m-522 -19 c9 -5 31 -15 47 -22 40 -18 65
-39 65 -56 0 -11 -6 -11 -31 2 -16 9 -33 23 -36 31 -3 7 -16 14 -29 14 -28 0
-74 20 -74 32 0 11 36 10 58 -1z m312 -1 c0 -5 -7 -10 -15 -10 -8 0 -15 5 -15
10 0 6 7 10 15 10 8 0 15 -4 15 -10z m-2625 -20 c3 -5 -1 -10 -9 -10 -9 0 -16
5 -16 10 0 6 4 10 9 10 6 0 13 -4 16 -10z m-799 -25 c-3 -9 -11 -13 -16 -10
-8 5 -7 11 1 21 14 18 24 11 15 -11z m1028 -12 c-2 -40 -15 -92 -25 -99 -5 -3
-9 -15 -9 -28 0 -22 -17 -46 -32 -46 -13 0 -9 53 7 84 8 15 15 35 15 42 0 8 4
22 9 32 5 9 12 25 15 35 8 26 21 14 20 -20z m1756 -21 c0 -9 -55 10 -62 21
-14 23 4 26 33 5 16 -12 29 -24 29 -26z m-5590 28 c0 -5 -2 -10 -4 -10 -3 0
-8 5 -11 10 -3 6 -1 10 4 10 6 0 11 -4 11 -10z m-95 -40 c3 -5 -1 -10 -10 -10
-9 0 -13 5 -10 10 3 6 8 10 10 10 2 0 7 -4 10 -10z m4401 -28 c-14 -14 -16
-14 -16 -1 0 20 23 44 29 28 2 -6 -4 -18 -13 -27z m-1746 13 c0 -16 -48 -40
-59 -29 -7 6 36 44 50 44 5 0 9 -7 9 -15z m800 -35 c9 -18 8 -20 -15 -20 -14
0 -25 2 -25 4 0 2 -3 11 -6 20 -9 24 33 20 46 -4z m-3540 -5 c0 -8 -7 -15 -15
-15 -16 0 -20 12 -8 23 11 12 23 8 23 -8z m2870 -1 c0 -8 -4 -12 -10 -9 -5 3
-10 10 -10 16 0 5 5 9 10 9 6 0 10 -7 10 -16z m1337 -6 c-3 -8 -6 -5 -6 6 -1
11 2 17 5 13 3 -3 4 -12 1 -19z m-1560 -24 c7 -20 -40 -70 -57 -59 -8 5 -8 11
3 23 8 10 17 25 20 35 8 21 26 22 34 1z m959 1 c10 -26 0 -37 -20 -22 -11 8
-16 19 -12 25 10 16 26 15 32 -3z m-1070 -110 c-9 -14 -23 -25 -31 -25 -7 0
-21 -7 -30 -16 -19 -20 -28 -15 -12 6 20 25 79 71 85 66 2 -3 -3 -17 -12 -31z
m2040 -3 c-14 -14 -16 -14 -16 -1 0 20 23 44 29 28 2 -6 -4 -18 -13 -27z m464
15 c0 -19 -10 -27 -26 -20 -21 8 -17 33 6 33 11 0 20 -6 20 -13z m-1100 -16
c0 -32 -29 -91 -45 -91 -21 0 -19 37 6 76 23 38 39 44 39 15z m-2660 -51 c0
-5 -4 -10 -10 -10 -5 0 -10 5 -10 10 0 6 5 10 10 10 6 0 10 -4 10 -10z m870
-30 c0 -11 -7 -20 -15 -20 -8 0 -15 9 -15 20 0 11 7 20 15 20 8 0 15 -9 15
-20z m275 10 c3 -6 -1 -13 -10 -16 -19 -8 -30 0 -20 15 8 14 22 14 30 1z
m2823 -2 c19 -19 14 -28 -13 -28 -18 0 -25 5 -25 20 0 22 20 26 38 8z m-3178
-42 c0 -18 -30 -30 -43 -17 -5 5 -6 14 -3 20 10 16 46 13 46 -3z m466 -13
c-10 -10 -19 5 -10 18 6 11 8 11 12 0 2 -7 1 -15 -2 -18z m1340 -21 c-15 -15
-16 -14 -16 9 0 33 11 44 23 23 6 -11 4 -21 -7 -32z m1064 28 c14 -10 21 -22
17 -26 -11 -11 -57 14 -57 31 0 20 10 19 40 -5z m-2640 -40 c0 -5 -9 -10 -20
-10 -27 0 -70 -29 -70 -47 0 -8 -7 -13 -17 -11 -31 6 -20 27 27 51 49 26 80
33 80 17z m-350 -20 c0 -5 -9 -10 -20 -10 -11 0 -25 -9 -32 -20 -15 -23 -38
-27 -38 -6 0 16 44 43 73 45 9 1 17 -3 17 -9z m474 -19 c3 -5 -1 -14 -8 -20
-16 -13 -32 2 -21 19 8 12 22 13 29 1z m1424 -9 c2 -6 -7 -22 -20 -35 -13 -12
-29 -35 -35 -50 -7 -15 -19 -27 -28 -27 -21 0 -19 17 5 37 11 10 20 26 20 37
0 39 47 70 58 38z m982 -12 c17 -24 18 -30 6 -30 -24 0 -66 22 -66 35 0 35 33
32 60 -5z m287 11 c3 -11 15 -22 26 -26 18 -6 19 -8 5 -12 -16 -4 -68 33 -68
49 0 17 32 7 37 -11z m1663 -11 c0 -5 -5 -10 -11 -10 -5 0 -7 5 -4 10 3 6 8
10 11 10 2 0 4 -4 4 -10z m-3420 -63 c0 -2 -10 -12 -22 -23 l-23 -19 19 23
c18 21 26 27 26 19z m3651 -40 c-14 -14 -45 -4 -49 15 -3 15 1 15 27 5 18 -6
27 -15 22 -20z m-2021 19 c0 -3 -4 -8 -10 -11 -5 -3 -10 -1 -10 4 0 6 5 11 10
11 6 0 10 -2 10 -4z m340 -12 c0 -17 -22 -14 -28 4 -2 7 3 12 12 12 9 0 16 -7
16 -16z m-3690 -24 c0 -6 -8 -13 -17 -16 -10 -3 -25 -9 -33 -14 -31 -19 -103
-50 -115 -50 -7 0 -18 -7 -25 -15 -16 -19 -109 -65 -133 -65 -25 0 -57 -18
-84 -47 -20 -21 -63 -32 -63 -17 0 20 124 84 162 84 13 0 45 18 72 40 26 22
58 40 70 40 30 0 102 36 109 55 7 17 57 21 57 5z m3214 -13 c17 -13 51 -29 76
-37 25 -7 49 -17 55 -22 5 -4 19 -8 31 -8 14 0 25 -8 29 -20 4 -12 15 -20 29
-20 12 0 31 -7 42 -15 10 -8 27 -15 36 -15 18 0 34 -18 24 -27 -3 -4 -16 -1
-29 5 -12 6 -39 16 -59 22 -21 6 -38 16 -38 21 0 5 -12 9 -27 9 -15 0 -36 8
-47 18 -12 10 -41 24 -66 32 -25 7 -54 18 -65 25 -11 7 -32 15 -47 19 -16 3
-28 13 -28 21 0 23 49 18 84 -8z m2226 13 c0 -5 -4 -10 -10 -10 -5 0 -10 5
-10 10 0 6 5 10 10 10 6 0 10 -4 10 -10z m-3840 -40 c0 -5 -4 -10 -10 -10 -5
0 -10 5 -10 10 0 6 5 10 10 10 6 0 10 -4 10 -10z m1960 -10 c0 -5 -4 -10 -10
-10 -5 0 -10 5 -10 10 0 6 5 10 10 10 6 0 10 -4 10 -10z m2010 0 c0 -5 -4 -10
-10 -10 -5 0 -10 5 -10 10 0 6 5 10 10 10 6 0 10 -4 10 -10z m-1952 -147 l27
-28 -23 -3 c-28 -4 -72 23 -72 43 0 24 39 17 68 -12z m-4125 -40 c10 -10 -13
-33 -34 -33 -10 0 -23 -9 -29 -20 -10 -19 -49 -27 -63 -13 -11 11 14 33 38 33
12 0 32 9 45 20 25 21 33 24 43 13z m6568 -13 c13 -10 19 -19 12 -20 -6 0 -15
5 -18 10 -3 6 -15 10 -26 10 -10 0 -19 5 -19 10 0 16 26 11 51 -10z m-2278
-17 c20 -9 37 -20 37 -25 0 -17 -31 -20 -48 -5 -9 8 -37 24 -62 35 l-45 21 40
-5 c22 -3 57 -12 78 -21z m1927 -23 c0 -5 -4 -10 -10 -10 -5 0 -10 5 -10 10 0
6 5 10 10 10 6 0 10 -4 10 -10z m-8454 -35 c-21 -16 -32 -13 -21 4 3 6 14 11
23 11 15 -1 15 -2 -2 -15z m6664 -5 c6 -11 17 -20 24 -20 8 0 27 -7 42 -15 16
-8 39 -15 52 -15 28 0 84 -27 95 -46 4 -8 19 -14 32 -14 13 0 27 -4 30 -10 3
-5 17 -10 29 -10 13 0 35 -9 49 -20 14 -11 34 -20 45 -20 11 0 25 -7 32 -15 7
-8 28 -15 46 -15 22 0 40 -7 51 -20 10 -11 25 -20 35 -20 9 0 20 -4 23 -10 11
-18 -62 -10 -87 9 -14 11 -47 25 -74 32 -27 7 -53 18 -59 25 -5 6 -22 14 -37
18 -15 3 -33 13 -42 21 -8 8 -24 15 -35 15 -11 0 -23 5 -26 10 -3 6 -21 10
-38 10 -21 0 -36 7 -45 20 -7 11 -18 20 -25 20 -6 0 -23 6 -37 13 -14 7 -43
19 -65 26 -23 7 -52 21 -65 32 l-25 19 32 0 c22 0 36 -6 43 -20z m2355 0 c0
-22 -39 -19 -43 3 -3 15 1 18 20 15 12 -2 23 -10 23 -18z m-9435 -30 c0 -5 -2
-10 -4 -10 -3 0 -8 5 -11 10 -3 6 -1 10 4 10 6 0 11 -4 11 -10z m2410 0 c0 -5
-9 -10 -20 -10 -11 0 -20 5 -20 10 0 6 9 10 20 10 11 0 20 -4 20 -10z m5465
-31 c3 -4 1 -11 -5 -14 -11 -7 -40 11 -40 25 0 10 38 1 45 -11z m375 11 c0 -5
-4 -10 -10 -10 -5 0 -10 5 -10 10 0 6 5 10 10 10 6 0 10 -4 10 -10z m-5958
-35 c-17 -14 -39 -25 -50 -25 -12 0 -24 -4 -27 -10 -3 -5 -10 -10 -16 -10 -5
0 -9 5 -9 10 0 6 7 10 15 10 7 0 18 7 23 15 8 15 49 32 80 34 8 1 0 -10 -16
-24z m5301 1 c3 -8 3 -17 0 -20 -7 -7 -33 13 -33 25 0 15 27 10 33 -5z m142
-56 c4 -6 -5 -10 -20 -10 -15 0 -24 4 -20 10 3 6 12 10 20 10 8 0 17 -4 20
-10z m1615 0 c0 -5 -4 -10 -10 -10 -5 0 -10 5 -10 10 0 6 5 10 10 10 6 0 10
-4 10 -10z m-7230 -20 c0 -5 -8 -10 -19 -10 -10 0 -25 -10 -33 -22 -8 -12 -19
-18 -26 -14 -19 12 -14 36 7 36 11 0 23 5 26 10 3 6 15 10 26 10 10 0 19 -4
19 -10z m5686 -1 c14 -23 -13 -30 -37 -10 l-24 20 27 1 c15 0 30 -5 34 -11z
m122 -51 c17 -17 15 -28 -7 -28 -19 0 -35 23 -24 34 9 9 18 7 31 -6z m762 -2
c0 -16 -18 -31 -27 -22 -8 8 5 36 17 36 5 0 10 -6 10 -14z m870 -12 c0 -8 -7
-14 -15 -14 -15 0 -21 21 -9 33 10 9 24 -2 24 -19z m450 6 c11 -11 25 -20 30
-20 6 0 10 -4 10 -10 0 -12 -13 -13 -25 -1 -6 5 -21 11 -35 13 -14 2 -26 11
-28 21 -5 23 23 22 48 -3z m-8111 -46 c-13 -7 -34 -13 -46 -14 -12 0 -25 -4
-28 -10 -3 -5 -14 -10 -23 -10 -10 0 -25 -9 -35 -20 -9 -11 -26 -20 -36 -20
-11 0 -36 -10 -56 -21 -26 -16 -39 -19 -47 -11 -8 8 0 16 28 29 21 10 43 24
47 31 4 6 23 12 42 12 19 0 36 4 39 8 3 4 28 14 56 22 28 8 54 18 56 22 3 5
10 5 16 2 6 -4 1 -12 -13 -20z m8356 -66 c-64 -69 -79 -80 -73 -52 2 11 13 23
26 29 12 5 25 18 28 28 5 15 58 57 73 57 2 0 -23 -28 -54 -62z m-2448 32 c13
0 23 -4 23 -9 0 -12 76 -51 84 -44 3 4 30 -4 59 -16 75 -33 82 -37 82 -47 0
-22 -51 -12 -118 22 -105 54 -106 54 -118 54 -16 0 -69 47 -62 54 4 4 11 2 17
-4 5 -5 20 -10 33 -10z m712 -14 c9 -10 9 -16 1 -21 -16 -10 -40 2 -40 20 0
19 24 20 39 1z m431 -12 c0 -9 -5 -14 -12 -12 -18 6 -21 28 -4 28 9 0 16 -7
16 -16z m-780 -4 c0 -5 -2 -10 -4 -10 -3 0 -8 5 -11 10 -3 6 -1 10 4 10 6 0
11 -4 11 -10z m923 -46 c61 -20 75 -30 61 -44 -8 -8 -15 -6 -24 5 -7 8 -18 15
-25 15 -14 0 -75 29 -75 36 0 7 8 5 63 -12z m837 6 c0 -5 -4 -10 -9 -10 -6 0
-13 5 -16 10 -3 6 1 10 9 10 9 0 16 -4 16 -10z m-8350 -20 c0 -5 -6 -10 -14
-10 -8 0 -16 -7 -20 -15 -6 -17 -46 -21 -46 -5 0 6 15 17 33 25 39 17 47 18
47 5z m7180 -26 c0 -8 -9 -14 -20 -14 -19 0 -27 19 -14 33 10 9 34 -4 34 -19z
m-362 -2 c2 -7 -3 -12 -12 -12 -9 0 -16 7 -16 16 0 17 22 14 28 -4z m-6958
-27 c0 -9 -8 -18 -17 -21 -23 -8 -64 -24 -85 -35 -24 -12 -48 -11 -48 1 0 6
11 10 25 10 14 0 25 5 25 10 0 6 10 10 23 10 12 0 30 9 40 20 20 24 37 26 37
5z m6725 4 c11 -17 174 -89 203 -89 7 0 20 -7 28 -15 9 -8 24 -15 35 -15 10 0
19 -4 19 -10 0 -14 -66 -13 -93 1 -12 7 -26 18 -30 25 -4 8 -17 14 -27 14 -11
0 -20 5 -20 10 0 6 -8 10 -17 10 -21 0 -90 23 -99 33 -4 4 -18 7 -31 7 -22 0
-31 19 -16 33 10 11 41 8 48 -4z m1969 -8 c9 -14 -4 -41 -20 -41 -8 0 -14 8
-14 18 0 29 22 43 34 23z m-1514 -51 c0 -5 -7 -10 -15 -10 -8 0 -15 5 -15 10
0 6 7 10 15 10 8 0 15 -4 15 -10z m360 0 c0 -5 -7 -10 -15 -10 -8 0 -15 5 -15
10 0 6 7 10 15 10 8 0 15 -4 15 -10z m795 0 c-3 -5 -10 -10 -16 -10 -5 0 -9 5
-9 10 0 6 7 10 16 10 8 0 12 -4 9 -10z m-1063 -26 c23 -12 28 -18 18 -27 -9
-9 -14 -8 -24 6 -7 9 -21 17 -30 17 -9 0 -16 5 -16 10 0 14 16 12 52 -6z
m1378 9 c0 -10 -42 -53 -51 -53 -5 0 -6 7 -4 15 3 8 7 22 10 30 4 15 45 22 45
8z m-8880 -28 c0 -8 -9 -15 -20 -15 -11 0 -20 7 -20 15 0 8 9 15 20 15 11 0
20 -7 20 -15z m-125 -45 c4 -6 -5 -10 -19 -10 -14 0 -26 -4 -26 -10 0 -5 -9
-10 -20 -10 -11 0 -20 5 -20 10 0 6 9 10 19 10 11 0 23 5 26 10 3 6 12 10 20
10 8 0 17 -4 20 -10z m7460 -9 c83 -54 94 -80 18 -42 -21 11 -53 25 -70 31
-18 7 -33 16 -33 21 0 16 54 9 85 -10z m315 9 c0 -5 16 -10 35 -10 19 0 35 -4
35 -10 0 -14 -41 -13 -73 3 -29 13 -36 27 -12 27 8 0 15 -4 15 -10z m790 0 c0
-5 -7 -10 -16 -10 -8 0 -12 5 -9 10 3 6 10 10 16 10 5 0 9 -4 9 -10z m362 -22
c-10 -18 -28 -37 -40 -43 -12 -5 -22 -15 -22 -20 0 -6 -16 -26 -35 -45 -19
-19 -35 -43 -35 -54 0 -12 -16 -33 -36 -50 -20 -15 -44 -48 -54 -72 -14 -31
-25 -44 -40 -44 -31 0 -28 46 4 54 16 4 31 20 42 45 9 21 39 58 65 81 32 28
49 51 49 66 0 13 9 28 20 34 11 6 20 17 20 25 0 16 47 55 66 55 10 0 9 -8 -4
-32z m-307 2 c4 -6 -5 -10 -19 -10 -14 0 -26 5 -26 10 0 6 9 10 19 10 11 0 23
-4 26 -10z m-8737 -27 c-2 -11 -14 -19 -31 -21 -29 -4 -35 6 -15 26 19 19 50
15 46 -5z m7788 -48 c20 -14 44 -25 53 -25 9 0 27 -7 39 -16 12 -8 26 -13 30
-10 19 12 142 -45 142 -65 0 -12 -57 -11 -65 1 -3 6 -14 10 -24 10 -10 0 -24
7 -31 15 -7 8 -22 15 -34 15 -12 0 -26 4 -31 8 -6 4 -28 14 -50 21 -68 22
-105 43 -105 57 0 22 35 17 76 -11z m-7936 1 c-18 -17 -60 -30 -60 -19 0 10
38 30 60 32 13 1 13 -1 0 -13z m8743 -42 c-3 -16 -21 -15 -37 1 -23 23 -9 40
17 22 12 -8 21 -18 20 -23z m-8848 -4 c-3 -5 -12 -7 -20 -3 -21 7 -19 13 6 13
11 0 18 -4 14 -10z m-97 -24 c-10 -7 -18 -18 -18 -25 0 -6 -13 -11 -30 -11
-63 0 -16 46 50 49 12 0 11 -2 -2 -13z m8680 2 c20 -20 14 -27 -13 -15 -14 7
-25 15 -25 20 0 11 25 8 38 -5z m352 8 c0 -9 -30 -14 -35 -6 -4 6 3 10 14 10
12 0 21 -2 21 -4z m-9680 -70 c0 -3 -4 -8 -10 -11 -5 -3 -10 -1 -10 4 0 6 5
11 10 11 6 0 10 -2 10 -4z m420 -16 c-14 -11 -33 -20 -42 -20 -10 0 -27 -9
-38 -20 -21 -21 -50 -27 -50 -10 0 12 77 50 101 50 10 0 21 5 24 10 3 6 12 10
18 10 7 0 1 -9 -13 -20z m8742 0 c9 -13 24 -20 45 -20 23 0 33 -5 33 -15 0
-25 -29 -29 -53 -7 -12 11 -38 22 -57 24 -24 2 -36 9 -38 21 -5 26 54 24 70
-3z m388 -10 c0 -5 -4 -10 -10 -10 -5 0 -10 5 -10 10 0 6 5 10 10 10 6 0 10
-4 10 -10z m-9360 -64 c0 -16 -43 -27 -61 -16 -19 12 0 30 32 30 18 0 29 -5
29 -14z m9184 -1 c3 -8 17 -15 31 -15 14 0 34 -4 45 -10 11 -5 29 -14 40 -20
11 -5 31 -10 45 -10 13 0 47 -13 73 -30 62 -38 75 -38 105 1 14 18 29 29 36
25 18 -12 12 -33 -15 -55 -48 -38 -151 -22 -208 32 -22 20 -39 27 -70 27 -23
0 -46 4 -51 8 -6 5 -29 14 -51 20 -23 7 -47 19 -54 27 -11 13 -7 15 28 15 26
0 42 -5 46 -15z m-9344 -45 c0 -5 -4 -10 -10 -10 -5 0 -10 5 -10 10 0 6 5 10
10 10 6 0 10 -4 10 -10z"/>
<path d="M5755 13913 c-257 -15 -495 -40 -509 -53 -7 -7 10 -174 20 -191 2 -3
29 -2 59 4 31 5 59 7 62 4 3 -3 -10 -24 -28 -46 l-32 -41 38 -292 c21 -161 41
-297 45 -301 3 -4 82 -1 174 8 92 8 252 16 355 16 l189 2 6 106 c3 58 9 251
12 429 6 300 5 324 -11 342 -17 18 -31 20 -174 18 -86 -1 -178 -3 -206 -5z
m79 -305 c3 -57 7 -166 8 -243 l3 -140 -92 -3 -92 -3 -5 33 c-3 18 -10 110
-16 203 -6 94 -13 187 -16 207 -5 34 -4 37 23 41 15 2 62 5 105 6 l76 1 6
-102z"/>
<path d="M6270 13841 c0 -38 -3 -83 -6 -100 -6 -31 -6 -31 37 -31 73 0 72 4
59 -180 -7 -89 -8 -165 -3 -170 12 -10 276 -32 283 -23 4 5 21 120 39 257 31
240 32 250 14 267 -14 15 -51 21 -178 34 -88 8 -179 15 -202 15 l-43 0 0 -69z"/>
<path d="M6810 13788 c-6 -40 -13 -85 -16 -100 -6 -29 0 -32 76 -43 74 -10
100 -16 100 -23 0 -4 -22 -20 -50 -35 -31 -17 -52 -36 -54 -50 -3 -12 -7 -78
-11 -147 -3 -69 -10 -194 -16 -279 -5 -85 -8 -156 -6 -157 7 -8 249 -54 257
-49 7 4 13 60 50 450 12 116 22 215 25 222 3 10 73 0 146 -23 13 -4 20 9 33
63 9 38 19 75 22 84 11 39 -26 57 -193 93 -89 20 -192 40 -230 46 -37 6 -80
13 -94 16 -26 5 -27 4 -39 -68z"/>
<path d="M4080 13721 c-128 -48 -215 -87 -215 -98 0 -23 121 -303 131 -303 6
0 44 14 85 31 79 33 301 110 305 106 3 -2 11 -113 19 -262 3 -55 8 -125 11
-155 11 -112 13 -127 20 -208 6 -71 9 -82 23 -77 9 4 71 25 139 47 96 33 122
45 117 57 -3 8 -8 184 -10 390 -5 406 -11 465 -51 483 -26 12 -124 -11 -322
-75 -57 -18 -105 -30 -107 -27 -2 3 -13 32 -25 63 -12 31 -27 57 -33 56 -7 0
-46 -13 -87 -28z"/>
<path d="M7486 13693 c-2 -10 -14 -51 -26 -91 -22 -75 -20 -92 8 -92 35 0 352
-114 352 -127 0 -14 -132 -369 -149 -402 -17 -31 -55 -27 -213 24 -77 25 -143
45 -147 45 -4 0 -18 -37 -31 -82 -12 -46 -25 -90 -27 -99 -3 -12 4 -18 24 -23
15 -4 110 -34 210 -66 141 -47 195 -60 242 -60 142 0 170 34 334 406 70 158
127 297 127 309 0 13 -6 27 -13 33 -42 35 -617 241 -674 242 -6 0 -14 -8 -17
-17z"/>
<path d="M3572 13346 c-93 -47 -172 -88 -175 -93 -7 -12 81 -173 95 -173 5 0
32 12 58 27 27 15 51 25 53 23 12 -16 179 -252 201 -286 24 -37 26 -46 17 -84
-5 -24 -13 -46 -18 -49 -4 -3 -28 -19 -53 -35 -25 -16 -47 -30 -49 -32 -3 -3
98 -184 103 -184 2 0 34 17 72 38 l69 37 2 55 c1 30 2 64 2 75 1 16 10 10 50
-29 l50 -49 98 43 c54 23 99 44 101 45 2 1 -41 74 -94 161 -98 163 -123 202
-232 371 -34 54 -77 121 -95 150 -26 42 -60 73 -81 73 -2 0 -81 -38 -174 -84z"/>
<path d="M8263 13320 l-41 -89 154 -77 c174 -86 204 -106 204 -137 0 -11 -70
-145 -157 -296 -86 -152 -158 -279 -160 -283 -1 -3 23 -21 54 -38 32 -18 84
-50 115 -71 31 -22 61 -39 66 -39 5 0 42 51 83 113 40 61 124 190 187 285 127
194 142 224 142 282 0 90 -61 158 -230 253 -124 69 -355 187 -367 187 -5 0
-27 -41 -50 -90z"/>
<path d="M3209 13161 l-46 -29 -6 -93 c-13 -176 -11 -193 29 -254 20 -30 39
-55 42 -55 3 0 44 24 91 54 47 29 96 59 109 65 12 7 22 16 22 21 0 7 -63 123
-76 138 -1 2 -16 -4 -33 -12 -16 -9 -34 -16 -40 -16 -5 0 -12 30 -16 68 -9
101 -16 142 -23 142 -4 0 -28 -13 -53 -29z"/>
<path d="M9033 12890 c-29 -44 -53 -83 -53 -87 0 -5 32 -30 70 -58 38 -27 70
-53 70 -56 0 -3 -28 -9 -62 -13 -71 -7 -46 16 -267 -236 -79 -91 -155 -177
-169 -192 l-24 -26 114 -86 113 -86 217 220 217 220 53 0 c73 0 118 -28 118
-72 0 -27 -18 -54 -102 -154 -57 -66 -121 -142 -143 -168 l-40 -48 -42 36 -41
36 -66 -78 -65 -77 52 -45 c29 -24 93 -84 143 -132 l91 -89 175 178 c336 341
350 360 350 454 0 135 -147 293 -314 336 l-69 18 3 40 3 40 -135 102 c-74 56
-137 102 -140 102 -3 0 -29 -35 -57 -79z"/>
<path d="M2742 12831 c-88 -66 -163 -124 -167 -130 -3 -6 16 -40 44 -75 75
-95 76 -95 114 -58 18 18 38 32 44 32 5 0 32 -28 59 -62 276 -355 368 -468
379 -464 7 2 60 39 118 82 l105 78 -31 46 c-186 273 -453 657 -461 662 -25 17
-53 2 -204 -111z"/>
<path d="M2292 12450 c-160 -150 -462 -475 -451 -484 2 -2 38 -31 79 -65 l75
-62 24 28 c100 119 247 273 258 271 7 -2 111 -100 230 -218 120 -119 228 -224
241 -235 l23 -19 99 99 c55 55 100 103 100 107 0 4 -102 121 -227 259 l-227
252 38 33 c43 37 43 35 -23 112 -68 79 -75 77 -239 -78z"/>
<path d="M9866 12161 l-69 -70 90 -98 c110 -120 265 -312 267 -329 1 -9 -401
-327 -517 -409 -18 -12 -13 -21 64 -132 45 -65 85 -122 89 -126 10 -12 718
461 725 484 8 24 -2 41 -102 183 -141 198 -447 566 -472 566 -4 0 -37 -31 -75
-69z"/>
<path d="M4854 12160 c-17 -6 -37 -17 -44 -25 -17 -21 -37 -19 -43 5 -5 18
-14 20 -91 20 l-86 0 0 -70 0 -70 45 0 c50 0 54 -6 26 -41 -14 -19 -22 -61
-35 -204 -23 -252 -30 -225 63 -225 l79 0 6 53 c3 28 11 122 17 207 10 146 13
157 37 183 16 16 35 27 47 25 17 -3 21 -13 26 -78 4 -41 7 -114 8 -162 l1 -88
-30 0 -30 0 0 -70 0 -70 111 0 111 0 -3 253 c-4 230 -6 255 -24 286 -11 19
-31 42 -45 52 -30 23 -103 32 -146 19z"/>
<path d="M3780 12090 l0 -70 40 0 c43 0 47 -5 25 -34 -12 -15 -15 -52 -15
-157 l0 -138 -27 -3 c-27 -3 -28 -5 -31 -70 l-3 -68 111 0 111 0 -2 233 -1
232 51 3 51 3 0 -235 0 -236 85 0 85 0 0 293 c0 215 -3 296 -12 305 -9 9 -76
12 -240 12 l-228 0 0 -70z"/>
<path d="M4320 12090 c0 -68 1 -70 25 -70 l25 0 0 -120 0 -120 85 0 85 0 0
171 c0 98 -4 178 -10 190 -10 17 -22 19 -110 19 l-100 0 0 -70z"/>
<path d="M5122 12093 c3 -62 5 -68 26 -71 20 -3 22 -9 22 -60 l0 -57 89 -105
89 -105 -101 -5 -102 -5 -3 -67 -3 -68 211 0 210 0 0 64 c0 64 -1 66 -55 130
-30 35 -55 68 -55 72 0 3 24 41 52 83 49 71 53 80 56 147 6 106 -1 114 -98
114 l-80 0 0 -47 c0 -27 -3 -58 -6 -70 -5 -18 -1 -23 19 -29 l26 -6 -26 -39
c-29 -44 -34 -46 -56 -21 -13 14 -17 38 -17 103 0 53 -5 90 -12 97 -8 8 -45
12 -100 12 l-89 0 3 -67z"/>
<path d="M5608 12090 c3 -61 6 -70 23 -70 22 0 22 -1 48 -180 31 -213 34 -191
-24 -210 l-50 -17 -3 -66 c-2 -37 -1 -67 2 -67 19 0 370 91 392 101 15 8 37
27 48 42 20 27 21 43 24 268 2 175 0 244 -9 255 -8 10 -36 14 -105 14 l-94 0
0 -70 c0 -68 1 -70 25 -70 l25 0 0 -154 c0 -168 -1 -171 -61 -182 l-34 -7 21
24 22 24 -32 215 -31 215 -95 3 -95 3 3 -71z"/>
<path d="M6369 12156 c-2 -2 -2 -34 -1 -70 l4 -66 134 0 134 0 0 -235 0 -235
85 0 85 0 0 293 c0 215 -3 296 -12 305 -9 9 -71 12 -218 12 -114 0 -209 -2
-211 -4z"/>
<path d="M6880 12090 l0 -70 30 0 30 0 0 -165 0 -165 -40 0 -40 0 0 -70 0 -70
95 0 c102 0 128 11 140 62 3 13 4 140 3 283 l-3 260 -107 3 -108 3 0 -71z"/>
<path d="M7160 12090 l0 -70 35 0 c19 0 35 -3 35 -7 0 -5 7 -66 15 -136 16
-135 13 -157 -25 -177 -10 -5 -30 -10 -44 -10 -25 0 -26 -2 -26 -70 l0 -70 50
0 c49 0 50 1 66 40 9 22 19 40 23 40 4 0 12 -17 17 -37 l9 -38 66 -3 65 -3
-34 293 c-19 161 -39 299 -44 306 -7 8 -42 12 -109 12 l-99 0 0 -70z"/>
<path d="M7500 12090 l0 -69 138 -3 137 -3 0 -232 0 -233 83 0 82 0 0 293 c0
215 -3 296 -12 305 -9 9 -72 12 -220 12 l-208 0 0 -70z"/>
<path d="M7990 12090 l0 -70 30 0 30 0 0 -235 0 -235 80 0 80 0 -2 303 -3 302
-107 3 -108 3 0 -71z"/>
<path d="M9505 11806 l-200 -194 43 -48 c23 -27 64 -75 90 -106 26 -31 52 -56
59 -55 6 1 106 81 222 177 l210 175 -27 35 c-33 45 -185 210 -192 210 -3 -1
-95 -88 -205 -194z"/>
<path d="M6370 11740 l0 -190 80 0 80 0 0 190 0 190 -80 0 -80 0 0 -190z"/>
<path d="M7500 11740 l0 -190 80 0 80 0 0 190 0 190 -80 0 -80 0 0 -190z"/>
<path d="M1717 11815 c-35 -40 -237 -325 -237 -334 1 -3 29 -24 63 -46 111
-72 100 -70 137 -19 18 25 37 43 44 41 9 -4 320 -218 493 -340 29 -20 56 -37
61 -37 4 0 38 42 75 93 37 50 77 104 89 119 12 15 20 29 17 31 -2 2 -151 122
-331 265 -240 192 -335 262 -354 262 -17 0 -36 -12 -57 -35z"/>
<path d="M8350 11325 c-203 -28 -413 -84 -730 -195 -408 -142 -697 -207 -1130
-252 -170 -18 -871 -18 -1040 0 -525 55 -916 146 -1259 293 -250 107 -413 143
-656 144 -149 0 -179 -3 -241 -23 -65 -20 -168 -84 -202 -125 -16 -19 76 -122
266 -296 185 -169 229 -216 277 -297 49 -81 61 -150 41 -231 -15 -61 -65 -151
-105 -187 -16 -14 -25 -15 -67 -6 -56 13 -88 31 -173 99 -55 44 -145 91 -155
80 -2 -2 3 -38 11 -79 9 -47 16 -178 19 -350 3 -151 9 -292 13 -313 l6 -39 70
56 c39 31 99 71 135 89 58 28 74 32 150 32 124 0 143 -10 189 -109 22 -44 48
-112 60 -150 27 -88 57 -379 72 -696 14 -309 6 -1065 -15 -1368 -25 -353 -58
-471 -196 -702 -78 -131 -141 -251 -155 -297 -5 -19 -3 -23 17 -23 24 0 186
33 351 71 l99 23 47 70 c109 163 171 361 201 644 7 61 17 112 21 112 5 0 9 -4
9 -8 0 -19 139 -192 225 -281 305 -316 682 -517 1135 -603 98 -19 149 -22 350
-22 256 0 323 8 539 65 480 127 909 437 1187 858 l49 74 7 -84 c26 -314 53
-505 82 -572 31 -75 161 -190 286 -252 81 -41 178 -72 267 -85 122 -18 123
-18 123 -11 0 4 -35 77 -79 163 -158 313 -261 725 -278 1102 -3 77 0 257 6
400 11 226 11 310 -4 631 -17 380 -15 527 11 692 18 119 67 254 108 297 32 34
112 66 166 66 56 0 133 -33 237 -103 59 -39 111 -73 115 -75 3 -2 8 167 11
375 3 208 8 390 12 406 5 17 3 27 -3 27 -6 0 -68 -38 -137 -85 -164 -109 -210
-118 -288 -54 -63 52 -130 226 -113 295 10 38 59 87 220 216 200 162 230 191
287 271 56 80 92 178 93 256 l1 56 -80 12 c-105 15 -345 14 -465 -2z m-3649
-785 c216 -22 682 -125 687 -153 5 -25 -32 -101 -71 -144 -44 -49 -126 -89
-203 -102 -36 -5 -113 -5 -199 0 -77 6 -238 16 -359 23 -247 14 -230 7 -267
105 -82 216 55 306 412 271z m2798 0 c59 -11 144 -51 179 -82 28 -27 28 -57
-2 -116 -47 -91 -122 -151 -221 -177 -76 -19 -255 -19 -435 0 -74 8 -188 15
-252 15 -111 0 -118 1 -148 26 -39 34 -80 113 -80 157 l0 34 72 7 c39 3 180
32 312 62 365 85 457 97 575 74z m-1059 -949 c0 -5 -10 -15 -21 -23 -16 -10
-20 -20 -15 -36 4 -12 12 -20 17 -17 13 9 11 -2 -10 -43 -30 -60 -41 -134 -41
-282 l0 -138 -36 -22 c-19 -12 -37 -21 -39 -18 -2 2 0 21 5 43 15 63 13 236
-2 233 -8 -2 -13 8 -13 27 0 22 4 29 17 27 17 -3 20 9 33 130 7 60 32 103 69
118 28 12 36 12 36 1z m-1580 -641 c0 -5 -5 -10 -11 -10 -5 0 -7 5 -4 10 3 6
8 10 11 10 2 0 4 -4 4 -10z m1354 -22 c-6 -20 -5 -21 10 -9 28 23 26 8 -5 -42
-28 -45 -37 -77 -21 -77 4 0 25 30 47 67 22 36 46 68 54 71 21 7 9 -47 -49
-233 -27 -87 -50 -165 -50 -173 0 -7 -5 -12 -12 -10 -7 3 -12 39 -14 104 -2
54 -12 145 -22 202 l-20 102 22 5 c11 2 30 6 41 8 11 3 21 5 23 6 2 0 0 -9 -4
-21z m-1241 -13 c8 -8 21 -37 28 -65 13 -51 29 -67 29 -29 0 18 2 20 16 9 17
-15 16 -85 -2 -85 -6 0 -46 32 -89 72 -66 60 -77 74 -66 87 7 8 22 17 34 19
12 2 25 5 29 6 4 0 13 -6 21 -14z m651 -89 l109 -13 63 -68 c35 -38 64 -70 64
-72 0 -2 -12 -4 -27 -4 -16 -1 -3 -5 27 -10 30 -5 58 -13 63 -18 14 -14 -80
-23 -105 -10 -29 16 -117 12 -161 -6 -38 -16 -97 -62 -97 -75 0 -5 20 3 45 16
44 25 98 34 113 20 9 -10 -35 -46 -57 -46 -11 0 -26 -19 -42 -52 -26 -57 -70
-112 -103 -130 -11 -6 1 13 27 42 50 55 83 108 73 117 -3 3 -38 -19 -78 -49
-86 -64 -188 -128 -205 -128 -7 0 11 24 40 53 131 133 165 178 91 122 -46 -36
-49 -31 -14 20 49 72 31 71 -28 -1 -51 -62 -55 -65 -72 -49 -17 15 -18 14 -25
-27 -8 -46 -40 -108 -57 -108 -6 0 -8 12 -5 30 7 34 -1 63 -14 54 -5 -3 -9
-16 -9 -29 0 -13 -4 -27 -10 -30 -5 -3 -10 3 -10 14 0 25 -20 38 -31 20 -15
-24 -10 79 5 116 16 37 12 41 -29 25 -21 -8 -24 -14 -19 -35 4 -16 0 -30 -11
-41 -11 -11 -14 -26 -11 -43 6 -24 5 -25 -8 -7 -8 10 -19 15 -24 12 -5 -3 -18
1 -28 9 -42 32 -47 12 -6 -24 24 -21 56 -57 72 -81 25 -38 27 -46 16 -60 -8
-8 -16 -24 -18 -35 -3 -17 -9 -12 -35 25 -35 51 -90 106 -98 99 -3 -3 27 -45
65 -93 39 -48 70 -95 70 -105 0 -11 7 -21 15 -25 10 -4 15 1 15 14 0 12 7 20
17 20 14 0 12 4 -7 25 -29 31 -20 44 16 21 29 -20 43 -14 24 9 -10 12 -10 15
1 15 7 0 3 10 -11 25 -13 14 -21 27 -18 30 7 7 68 -15 68 -25 0 -5 14 -22 31
-39 34 -35 54 -87 36 -94 -8 -3 -1 -16 16 -34 33 -36 34 -53 2 -83 l-25 -23
-49 46 c-32 30 -59 47 -75 47 -14 0 -30 8 -36 18 -9 15 -10 14 -8 -7 2 -18 15
-28 58 -45 32 -13 56 -29 58 -39 4 -20 8 -20 -97 2 -54 11 -88 24 -97 36 -17
22 -53 136 -94 295 -6 25 -22 61 -34 80 -30 46 -20 85 38 145 40 43 45 45 98
45 42 0 59 5 73 20 20 23 14 26 -15 8 -37 -23 -34 3 6 43 49 52 109 90 154
100 19 4 53 14 75 23 49 18 115 19 259 2z m678 -103 c-4 -53 -37 -132 -50
-119 -7 8 42 176 52 176 2 0 1 -26 -2 -57z m-212 -110 c27 -24 62 -65 80 -93
l32 -49 63 49 c34 28 67 50 73 50 9 0 0 -68 -10 -73 -1 -1 -22 -12 -46 -25
-23 -13 -48 -20 -54 -16 -6 4 -3 -5 8 -19 12 -17 25 -24 34 -20 28 11 70 15
70 7 0 -5 -5 -25 -10 -45 -11 -38 -8 -47 55 -184 13 -27 30 -84 40 -125 42
-187 67 -287 77 -307 14 -30 3 -70 -26 -89 -14 -8 -51 -17 -83 -20 l-58 -4 40
13 c46 14 65 25 65 37 0 5 -13 2 -30 -6 -37 -19 -94 -15 -98 7 -2 12 5 14 32
11 28 -3 41 2 73 32 42 39 32 47 -19 16 -33 -20 -68 -26 -68 -12 0 4 12 15 28
24 38 23 79 68 62 68 -8 0 -25 -11 -39 -24 -22 -21 -32 -24 -70 -19 l-43 6 43
14 c65 22 74 37 17 29 -28 -4 -49 -3 -53 4 -4 6 4 10 18 10 41 0 82 11 105 28
21 16 19 17 -49 19 -107 2 -112 19 -9 31 40 4 65 12 68 21 3 10 -4 12 -32 9
-39 -4 -45 2 -21 22 30 25 6 21 -28 -4 -19 -14 -45 -26 -58 -26 -19 0 -12 7
31 31 30 16 64 39 75 50 17 18 14 18 -30 -5 -27 -14 -56 -26 -63 -26 -26 0
-23 30 7 74 31 44 41 70 20 49 -13 -13 -64 -1 -117 29 -58 33 -62 43 -62 145
0 51 -4 93 -8 93 -5 0 -16 26 -26 58 -28 90 -54 129 -97 146 -21 9 -43 24 -48
35 -6 10 -22 22 -36 25 -23 6 -94 72 -95 88 0 17 227 -100 270 -139z m-993 91
c4 -11 -1 -22 -13 -31 -17 -12 -21 -11 -38 9 -18 22 -18 23 5 29 37 11 39 10
46 -7z m1243 -94 c0 -5 -9 -14 -21 -20 -19 -11 -20 -10 -9 9 11 22 30 29 30
11z m-815 -193 c-3 -6 -25 -26 -50 -42 -45 -30 -63 -55 -24 -35 11 6 25 9 32
7 16 -6 -37 -26 -101 -38 -75 -14 -83 -1 -16 27 33 13 81 39 109 59 57 40 56
39 50 22z m156 -57 c31 -72 33 -74 95 -90 33 -8 75 -27 93 -42 18 -16 37 -28
42 -28 6 0 7 -4 4 -10 -3 -5 -17 -10 -29 -10 -27 0 -112 36 -121 50 -3 6 -11
10 -16 10 -6 0 -1 -12 10 -26 12 -15 21 -33 21 -41 0 -30 -36 -6 -72 47 -29
42 -40 70 -47 120 -4 36 -6 72 -2 80 4 10 7 7 9 -10 1 -14 8 -36 13 -50z m-85
-36 c-19 -56 -19 -57 -6 -49 7 4 9 -2 5 -17 -23 -101 -25 -120 -15 -138 14
-25 8 -24 -65 9 l-60 28 43 27 c24 15 42 30 39 33 -3 3 -16 -2 -29 -11 -37
-26 -111 -21 -147 10 -17 14 -31 29 -31 32 0 4 27 5 60 4 39 -3 60 0 60 7 0 6
-7 11 -16 11 -23 0 -8 17 22 24 14 4 43 18 65 31 21 14 46 25 54 25 9 0 18 7
22 15 3 9 8 14 10 11 3 -3 -2 -26 -11 -52z m-636 12 c0 -39 -22 -136 -31 -136
-13 0 -11 86 2 131 13 40 29 43 29 5z m40 -165 c0 -8 -8 -23 -17 -34 -16 -18
-16 -20 -1 -14 21 7 30 -26 14 -49 -12 -15 -17 -15 -85 2 -69 18 -74 18 -102
1 -17 -9 -38 -17 -47 -17 -13 0 -11 4 6 20 12 12 22 24 22 29 0 5 21 16 48 26
79 30 152 83 132 95 -6 4 -8 15 -4 25 6 14 10 8 21 -26 7 -24 13 -50 13 -58z
m1063 34 c4 -9 -15 -32 -51 -64 -31 -27 -58 -48 -60 -46 -10 10 80 125 98 125
4 0 10 -7 13 -15z m-228 -34 c10 -17 -12 -21 -25 -6 -10 12 -10 15 3 15 9 0
18 -4 22 -9z m-414 -22 l24 -21 -25 6 c-14 3 -28 6 -31 6 -4 0 -9 7 -13 15 -8
22 18 19 45 -6z m509 14 c-1 -5 -22 -64 -48 -132 l-47 -124 -69 -24 c-39 -12
-78 -23 -89 -23 -10 0 -56 30 -103 66 -108 84 -136 131 -65 106 21 -8 33 -8
37 0 4 6 17 -2 33 -19 14 -16 52 -48 83 -71 50 -39 60 -42 93 -36 30 5 43 16
66 52 24 38 62 128 83 195 5 16 27 25 26 10z m180 -116 c29 -32 36 -47 28 -55
-8 -8 -7 -13 5 -18 9 -3 17 -15 17 -25 0 -10 9 -33 19 -51 11 -17 18 -35 15
-40 -3 -5 0 -15 6 -23 23 -27 4 -44 -60 -51 -35 -4 -71 -15 -84 -25 -25 -20
-48 -24 -60 -12 -3 4 15 28 41 55 56 56 48 63 -13 12 -51 -41 -56 -33 -14 24
43 60 21 52 -39 -14 -49 -53 -120 -163 -141 -218 -5 -14 -16 -26 -23 -26 -7 0
-39 29 -70 64 -46 52 -57 71 -57 100 0 19 -4 38 -10 41 -5 3 -10 14 -10 24 0
14 16 22 71 35 39 10 77 15 85 12 10 -4 39 17 81 59 37 36 79 73 95 83 15 9
28 20 28 25 0 9 -31 -6 -73 -36 -66 -45 -38 12 52 108 l56 60 8 -32 c5 -18 26
-52 47 -76z m-396 20 c23 -20 45 -52 56 -80 l18 -48 -26 -11 c-22 -8 -33 -6
-59 9 -26 15 -163 139 -163 147 0 1 13 1 28 -2 15 -2 43 1 62 6 19 6 37 11 40
11 3 0 22 -14 44 -32z m-294 -20 c13 -23 30 -73 37 -111 6 -38 17 -74 24 -80
9 -8 10 -3 5 22 -4 23 -2 31 5 26 18 -11 47 -85 54 -139 11 -83 14 -90 32 -72
13 13 14 23 5 58 -6 24 -9 45 -7 47 2 2 17 -9 34 -25 29 -26 30 -31 21 -68 -5
-22 -15 -44 -23 -50 -15 -11 -51 -75 -45 -81 7 -6 78 46 79 59 1 7 4 1 9 -13
4 -16 2 -33 -6 -47 -18 -29 0 -41 27 -17 13 11 19 30 19 57 0 58 13 37 26 -42
6 -37 14 -77 18 -88 5 -16 1 -22 -15 -26 -26 -7 -16 -27 13 -27 11 0 29 -9 39
-21 l18 -21 66 22 c36 12 65 26 65 31 0 10 53 12 86 3 15 -4 20 -11 17 -24 -3
-10 2 -29 10 -41 25 -41 28 -123 7 -192 -23 -73 -23 -70 -10 -62 6 3 18 22 28
41 l18 34 34 -52 c19 -29 49 -60 66 -70 30 -18 33 -18 97 2 50 15 73 29 95 56
l29 35 17 -46 c10 -25 22 -45 27 -45 12 0 12 1 -6 43 -8 20 -15 54 -15 75 0
33 7 46 39 78 22 22 51 47 66 58 23 16 26 24 23 57 -4 48 6 50 33 4 22 -36 33
-46 23 -20 -8 19 16 20 42 0 10 -8 38 -15 61 -15 49 0 56 -8 56 -64 0 -52 15
-19 16 36 1 42 20 58 71 58 17 0 45 7 62 16 47 25 60 -1 45 -91 l-7 -40 22 45
c11 25 22 64 22 87 1 25 6 43 12 43 6 0 17 7 24 15 19 23 26 18 37 -27 l11
-43 1 67 c0 37 5 69 11 73 5 3 23 32 41 65 28 53 34 58 51 49 31 -17 178 -160
178 -174 0 -6 -29 -50 -65 -98 -48 -63 -81 -95 -123 -120 -112 -68 -118 -68
-80 -7 20 32 32 70 21 70 -6 0 -54 -44 -143 -131 -42 -42 -91 -81 -109 -87
-29 -10 -31 -10 -31 14 0 14 7 36 16 49 9 14 12 25 6 25 -17 0 -67 -46 -108
-100 -24 -31 -52 -55 -77 -65 -22 -9 -41 -14 -44 -11 -2 2 15 40 37 83 23 44
40 88 38 99 -3 15 -7 12 -25 -18 -26 -44 -115 -106 -242 -167 -133 -64 -167
-63 -321 8 -63 29 -122 56 -130 60 -25 13 -61 100 -80 190 -9 47 -21 84 -26
81 -5 -3 -8 -42 -6 -88 3 -75 1 -83 -15 -82 -35 4 -36 0 -8 -30 36 -38 24 -38
-34 0 -70 44 -179 197 -290 405 -30 55 -63 113 -75 130 -11 16 -39 70 -61 120
-23 49 -55 106 -73 125 -18 19 -32 37 -32 40 0 4 20 20 45 38 25 17 47 42 51
57 3 14 9 25 13 25 3 0 17 -19 31 -43z m106 18 c10 -8 14 -15 8 -15 -5 0 -19
7 -30 15 -10 8 -14 15 -8 15 5 0 19 -7 30 -15z m1894 -68 c0 -39 -11 -93 -34
-165 -19 -59 -40 -140 -46 -180 -8 -49 -15 -70 -23 -65 -7 3 -24 15 -39 25
l-26 18 20 52 c11 29 31 65 46 81 27 29 21 38 -9 11 -16 -14 -20 -13 -53 8
-20 13 -36 26 -36 31 0 12 34 8 57 -8 19 -14 23 -12 45 18 68 89 78 113 78
189 0 51 3 68 10 58 5 -8 10 -41 10 -73z m-45 -5 c-8 -9 -25 20 -18 31 3 5 10
2 15 -7 6 -10 7 -20 3 -24z m-2262 7 l22 0 -22 -11 c-37 -18 -26 -28 30 -28
45 0 57 -4 79 -27 24 -25 48 -71 48 -92 0 -5 -20 -6 -44 -4 -78 9 -135 -18
-63 -30 40 -6 147 -53 147 -64 0 -5 -13 -14 -30 -20 -16 -6 -30 -18 -30 -27 0
-12 9 -14 48 -10 59 7 95 -13 72 -41 -7 -9 -30 -25 -50 -35 -21 -11 -50 -30
-67 -44 -16 -13 -42 -26 -58 -28 -17 -1 -28 -7 -25 -13 6 -11 48 -13 103 -3
20 4 37 4 37 0 0 -4 -24 -20 -52 -37 -68 -40 -74 -58 -16 -49 l43 7 -40 -42
c-36 -38 -37 -41 -17 -41 13 0 37 7 53 16 17 8 33 13 36 10 9 -9 -27 -58 -64
-89 -43 -37 -63 -76 -61 -121 1 -40 7 -42 71 -27 45 11 57 -2 23 -24 -17 -12
-42 -15 -91 -13 l-67 3 -15 40 c-8 22 -19 63 -23 90 -16 90 -30 365 -30 568 0
177 2 198 16 193 9 -3 25 -6 37 -7z m508 -176 c10 -23 23 -45 29 -48 5 -3 10
-11 10 -16 0 -6 -5 -7 -10 -4 -13 8 -88 119 -97 142 -13 36 48 -31 68 -74z
m1729 63 c0 -2 -8 -10 -17 -17 -16 -13 -17 -12 -4 4 13 16 21 21 21 13z
m-1197 -135 c-2 -10 4 -36 16 -58 11 -22 23 -63 27 -92 8 -61 21 -66 30 -11
l6 40 54 -75 c30 -42 54 -79 54 -83 0 -12 -26 -11 -82 0 -37 7 -54 6 -78 -5
-36 -19 -40 -4 -5 19 18 12 38 15 66 11 l41 -5 -23 24 c-30 32 -43 30 -94 -12
l-44 -36 -112 0 c-66 1 -116 5 -122 11 -6 6 -19 11 -29 11 -24 0 -23 28 2 60
11 14 20 30 20 36 0 10 168 151 199 167 9 5 -11 -16 -44 -47 -33 -30 -55 -55
-49 -56 6 0 21 12 35 26 13 14 32 30 41 35 15 8 16 5 7 -23 -5 -18 -21 -57
-36 -88 -39 -76 -39 -78 -9 -50 24 22 71 108 105 193 12 30 32 37 24 8z m117
-71 c0 -5 -4 -10 -10 -10 -5 0 -10 5 -10 10 0 6 5 10 10 10 6 0 10 -4 10 -10z
m200 -72 c6 -24 24 -84 40 -135 17 -50 30 -97 30 -103 0 -16 -33 -8 -43 10 -5
10 -6 8 -3 -7 2 -12 -2 -27 -10 -34 -12 -10 -14 -3 -14 40 0 56 -17 71 -22 19
-4 -39 -23 -48 -32 -13 -3 13 -12 24 -19 22 -18 -3 -18 65 1 86 16 18 13 27
-12 31 -17 2 -101 104 -93 112 3 3 21 0 40 -7 29 -10 41 -10 73 4 53 22 52 22
64 -25z m-233 -94 c-3 -3 -12 -4 -19 -1 -8 3 -5 6 6 6 11 1 17 -2 13 -5z
m-398 -37 c6 -8 8 -17 4 -20 -3 -4 7 -7 23 -7 l29 -1 -30 -13 c-35 -16 -52 -6
-52 29 0 28 9 32 26 12z m271 -41 c0 -20 -23 -56 -35 -56 -18 0 -30 24 -21 45
5 13 56 23 56 11z m338 -115 c2 -13 -1 -28 -7 -34 -8 -8 -11 -7 -11 4 0 7 -3
25 -7 38 -4 18 -2 23 8 19 8 -2 16 -15 17 -27z m-1097 -44 c-10 -25 -95 -88
-139 -104 -24 -8 56 74 96 98 17 12 35 33 39 47 7 23 8 24 11 6 1 -11 -2 -32
-7 -47z m-121 -219 c5 -13 12 -45 15 -72 5 -38 15 -58 48 -94 62 -67 131 -132
141 -132 14 0 77 -42 72 -48 -3 -2 -12 1 -21 8 -12 10 -15 10 -15 -4 0 -18
-15 -22 -25 -6 -10 17 -25 11 -18 -7 6 -17 5 -17 -14 0 -26 23 -36 22 -28 -3
8 -24 -2 -26 -27 -3 -17 15 -18 15 -18 0 0 -10 -5 -17 -12 -17 -21 0 -87 80
-97 118 -5 20 -12 51 -17 67 l-7 30 -7 -30 c-10 -41 -12 69 -4 154 7 64 18 77
34 39z"/>
<path d="M5222 8738 c7 -19 73 -37 119 -31 34 5 39 8 24 14 -11 4 -37 8 -57 8
-20 1 -49 6 -63 11 -20 8 -26 7 -23 -2z"/>
<path d="M6390 7860 c-13 -8 -13 -10 2 -10 9 0 20 5 23 10 8 13 -5 13 -25 0z"/>
<path d="M5320 6210 l0 -79 108 -3 109 -3 -52 -215 -52 -215 40 -3 c22 -2 43
0 47 5 14 15 111 441 108 475 l-3 33 -107 3 -108 3 0 39 0 40 -45 0 -45 0 0
-80z"/>
<path d="M4880 6170 c0 -39 1 -40 35 -40 34 0 35 -1 24 -22 -8 -15 -10 -70 -7
-180 l5 -158 -33 0 c-33 0 -34 -1 -34 -40 l0 -40 75 0 75 0 0 220 0 220 75 0
75 0 0 -220 0 -220 45 0 45 0 -2 258 -3 257 -187 3 -188 2 0 -40z"/>
<path d="M5710 6170 l0 -40 120 0 120 0 0 -220 0 -220 45 0 45 0 -2 258 -3
257 -162 3 -163 2 0 -40z"/>
<path d="M6140 6170 c0 -39 1 -40 35 -40 l35 0 -2 -177 -3 -178 -47 -3 -48 -3
0 -40 0 -39 60 0 c74 0 106 14 120 53 11 32 14 424 4 451 -5 13 -22 16 -80 16
l-74 0 0 -40z"/>
<path d="M6390 6170 l0 -40 120 0 120 0 0 -220 0 -220 45 0 45 0 -2 258 -3
257 -162 3 -163 2 0 -40z"/>
<path d="M6799 6190 c-1 -11 -2 -28 -3 -37 -1 -16 11 -18 102 -21 l102 -3 0
-179 0 -180 -105 0 -105 0 0 -40 0 -40 175 0 175 0 0 40 c0 36 -3 40 -25 40
l-25 0 -2 218 -3 217 -142 3 c-138 2 -143 2 -144 -18z"/>
<path d="M5710 5860 l0 -170 45 0 45 0 0 170 0 170 -45 0 -45 0 0 -170z"/>
<path d="M6390 5860 l0 -170 45 0 45 0 0 170 0 170 -45 0 -45 0 0 -170z"/>
<path d="M8212 5558 l3 -123 161 -5 160 -5 -71 -295 c-40 -162 -76 -307 -80
-322 l-7 -28 69 0 70 0 26 103 c88 339 138 564 135 612 l-3 50 -162 3 -163 2
0 65 0 65 -70 0 -71 0 3 -122z"/>
<path d="M3955 5543 c-16 -8 -40 -24 -52 -35 l-21 -20 -16 31 -17 31 -95 0
-95 0 3 -57 3 -58 63 -3 c76 -4 85 -17 49 -71 -24 -35 -28 -60 -51 -296 -14
-142 -26 -264 -26 -271 0 -11 18 -14 70 -14 l70 0 0 33 c0 17 9 138 21 267 18
208 24 240 45 277 32 55 69 83 110 83 42 0 71 -27 78 -72 3 -18 7 -131 8 -250
l3 -218 -62 0 -63 0 0 -60 0 -60 130 0 130 0 -1 133 c0 72 -4 220 -8 327 -6
182 -8 198 -31 239 -14 25 -40 52 -60 63 -44 23 -143 24 -185 1z"/>
<path d="M2690 5544 c0 -3 23 -43 50 -89 28 -46 50 -88 50 -95 0 -6 -13 -22
-29 -36 -84 -71 -93 -141 -37 -308 20 -60 36 -113 36 -117 0 -5 -20 -9 -45 -9
l-45 0 0 -55 0 -55 115 0 115 0 0 55 c0 42 -11 83 -50 180 -27 69 -50 138 -50
154 0 27 33 81 50 81 7 0 104 -171 226 -397 l39 -73 69 0 c57 0 67 2 62 15 -3
9 -39 79 -80 156 l-75 140 75 169 c69 156 75 172 72 227 l-3 58 -108 3 -108 3
3 -58 3 -58 48 -3 c43 -3 47 -5 42 -23 -10 -31 -84 -189 -89 -189 -3 0 -47 74
-98 165 l-93 165 -72 0 c-40 0 -73 -3 -73 -6z"/>
<path d="M3320 5490 l0 -60 50 0 50 0 0 -163 c0 -90 2 -166 4 -168 2 -2 32 -2
65 -1 l61 4 -2 221 -3 222 -112 3 -113 3 0 -61z"/>
<path d="M4332 5493 c3 -57 3 -58 36 -61 l32 -3 0 -325 0 -324 70 0 70 0 0
328 0 327 95 -3 c143 -5 135 15 135 -353 l0 -299 65 0 65 0 0 323 c0 315 -1
324 -22 367 -39 76 -57 80 -321 80 l-228 0 3 -57z"/>
<path d="M5032 5493 l3 -58 53 -3 52 -3 0 -253 c0 -194 -3 -256 -13 -264 -7
-6 -40 -12 -72 -14 l-60 -3 -3 -57 -3 -58 96 0 c109 0 146 13 170 60 13 25 15
80 13 367 l-3 338 -118 3 -118 3 3 -58z"/>
<path d="M5670 5491 l0 -61 35 0 c39 0 42 -5 20 -30 -11 -12 -15 -50 -17 -161
l-3 -144 108 -3 107 -3 0 61 0 60 -45 0 -45 0 0 110 0 110 85 0 c135 0 125 32
125 -415 l0 -375 65 0 65 0 0 398 c0 368 -1 400 -19 432 -38 72 -49 75 -277
78 l-204 3 0 -60z"/>
<path d="M6282 5493 l3 -58 33 0 c36 0 38 -5 18 -38 -11 -19 -10 -65 13 -321
l25 -298 131 4 c152 5 198 20 257 86 62 69 69 109 66 413 l-3 264 -273 3 -273
2 3 -57z m418 -270 c0 -178 -3 -213 -18 -242 -27 -54 -64 -75 -130 -76 l-57 0
-17 210 c-9 116 -18 234 -20 263 l-5 52 124 0 123 0 0 -207z"/>
<path d="M6972 5528 c8 -13 34 -56 57 -97 l43 -73 -46 -47 c-46 -47 -66 -90
-66 -144 0 -21 50 -194 77 -264 4 -9 -8 -13 -41 -13 l-46 0 0 -55 0 -55 115 0
115 0 0 49 c0 35 -14 84 -51 176 -63 160 -65 172 -40 213 36 56 27 67 192
-237 l106 -196 71 -3 c40 -2 72 -1 72 1 0 2 -36 70 -80 152 -44 82 -80 152
-80 156 0 4 32 79 70 166 67 150 71 161 68 223 l-3 65 -102 3 -103 3 0 -60 0
-60 49 -3 50 -3 -46 -102 c-26 -57 -49 -103 -52 -103 -3 0 -47 73 -97 163
l-91 162 -78 3 -78 3 15 -23z"/>
<path d="M7600 5491 l0 -60 48 -3 47 -3 3 -322 2 -323 65 0 65 0 0 373 c0 277
-3 376 -12 385 -8 8 -48 12 -115 12 l-103 0 0 -59z"/>
<path d="M8801 5493 c18 -32 43 -75 57 -96 l23 -39 -40 -37 c-81 -75 -88 -138
-36 -301 20 -60 37 -113 38 -117 1 -5 -18 -10 -43 -13 l-45 -5 -3 -52 -3 -53
115 0 116 0 0 58 c0 45 -10 84 -50 184 -27 70 -50 138 -50 151 0 25 34 77 50
77 9 0 110 -175 206 -357 l59 -113 73 0 73 0 -17 33 c-9 17 -45 85 -80 149
-35 64 -64 123 -64 130 0 7 32 84 70 170 67 149 71 162 68 220 l-3 63 -102 3
-103 3 0 -61 0 -60 45 0 c25 0 45 -3 45 -7 0 -14 -83 -203 -89 -203 -3 0 -25
33 -47 73 -23 39 -65 114 -94 165 l-52 92 -75 0 -74 0 32 -57z"/>
<path d="M9392 5493 l3 -58 48 -3 47 -3 0 -325 0 -324 70 0 70 0 0 366 c0 233
-4 372 -10 385 -10 17 -22 19 -121 19 l-110 0 3 -57z"/>
<path d="M9730 5491 l0 -60 45 -3 45 -3 3 -160 2 -160 60 -6 c33 -3 63 -4 68
-2 13 7 8 428 -5 441 -8 8 -48 12 -115 12 l-103 0 0 -59z"/>
<path d="M1358 5470 c12 -22 24 -30 45 -30 23 0 27 4 27 30 0 29 -2 30 -45 30
l-44 0 17 -30z"/>
<path d="M10440 5493 c0 -5 9 -19 19 -33 17 -21 23 -23 47 -15 14 6 33 20 42
33 l14 22 -61 0 c-33 0 -61 -3 -61 -7z"/>
<path d="M2752 4428 c5 -13 14 -19 71 -44 28 -12 41 -14 49 -6 8 8 5 14 -13
21 -14 5 -31 16 -38 25 -16 19 -75 22 -69 4z"/>
<path d="M8340 4130 c-8 -5 -26 -10 -39 -10 -25 0 -87 -45 -73 -54 12 -7 114
24 135 42 31 27 12 45 -23 22z"/>
<path d="M8130 4056 c0 -2 9 -6 20 -9 11 -3 20 -1 20 4 0 5 -9 9 -20 9 -11 0
-20 -2 -20 -4z"/>
<path d="M7712 3973 c4 -22 44 -29 64 -13 24 21 16 30 -27 30 -33 0 -40 -3
-37 -17z"/>
</g>
</svg>
