<?xml version="1.0" standalone="no"?>
<!DOCTYPE svg PUBLIC "-//W3C//DTD SVG 20010904//EN"
 "http://www.w3.org/TR/2001/REC-SVG-20010904/DTD/svg10.dtd">
<svg version="1.0" xmlns="http://www.w3.org/2000/svg"
 width="512.000000pt" height="512.000000pt" viewBox="0 0 512.000000 512.000000"
 preserveAspectRatio="xMidYMid meet">

<g transform="translate(0.000000,512.000000) scale(0.100000,-0.100000)"
fill="#000000" stroke="none">
<path d="M1208 4733 c-4 -361 -6 -394 -26 -468 -22 -79 -116 -285 -130 -285
-4 0 -45 38 -92 85 -47 47 -89 85 -95 85 -13 0 -205 -192 -205 -205 0 -6 75
-86 168 -178 l167 -167 108 0 107 0 0 -300 0 -300 -150 0 -150 0 0 150 0 150
-149 0 -150 0 -3 -382 c-5 -432 -9 -462 -87 -623 -66 -136 -56 -134 -158 -32
-49 48 -93 87 -98 87 -13 0 -205 -192 -205 -205 0 -6 75 -86 168 -178 l167
-167 108 0 107 0 0 -450 0 -450 -305 0 -305 0 0 -450 0 -450 2560 0 2560 0 0
450 0 450 -305 0 -305 0 0 450 0 450 108 0 107 0 168 168 c92 92 167 172 167
177 0 13 -192 205 -205 205 -5 0 -49 -39 -98 -87 -102 -102 -92 -104 -158 32
-78 161 -82 191 -87 623 l-3 382 -150 0 -149 0 0 -150 0 -150 -150 0 -150 0 0
300 0 300 108 0 107 0 168 168 c92 92 167 172 167 177 0 13 -192 205 -205 205
-6 0 -48 -38 -95 -85 -47 -47 -88 -85 -92 -85 -14 0 -109 207 -130 285 -20 74
-22 108 -26 468 l-3 387 -150 0 -149 0 0 -150 0 -150 -1050 0 -1050 0 0 150 0
150 -149 0 -149 0 -4 -387z m2402 -265 c0 -138 48 -342 111 -477 21 -46 39
-85 39 -87 0 -2 -540 -4 -1200 -4 -660 0 -1200 2 -1200 5 0 3 13 31 29 63 63
125 107 298 118 458 l6 94 1049 0 1048 0 0 -52z m0 -1168 l0 -300 -150 0 -150
0 0 150 0 150 -150 0 -150 0 0 -150 0 -150 -150 0 -150 0 0 150 0 150 -150 0
-150 0 0 -150 0 -150 -150 0 -150 0 0 150 0 150 -150 0 -150 0 0 -150 0 -150
-150 0 -150 0 0 300 0 300 1050 0 1050 0 0 -300z m600 -652 c0 -140 51 -351
116 -480 l34 -68 -1800 0 -1800 0 34 68 c65 129 116 340 116 480 l0 52 1650 0
1650 0 0 -52z m0 -998 l0 -150 -150 0 -150 0 0 -150 0 -150 150 0 150 0 0
-150 0 -150 -600 0 -600 0 0 300 0 300 -450 0 -450 0 0 -300 0 -300 -600 0
-600 0 0 150 0 150 150 0 150 0 0 150 0 150 -150 0 -150 0 0 150 0 150 1650 0
1650 0 0 -150z m-1500 -600 l0 -150 -150 0 -150 0 0 150 0 150 150 0 150 0 0
-150z m-965 -600 l-150 -150 -647 0 -648 0 0 150 0 150 797 0 798 0 -150 -150z
m1200 0 l150 -150 -535 0 -535 0 150 150 150 150 235 0 235 0 150 -150z m1875
0 l0 -150 -648 0 -647 0 -150 150 -150 150 798 0 797 0 0 -150z"/>
<path d="M1510 1350 l0 -150 150 0 150 0 0 150 0 150 -150 0 -150 0 0 -150z"/>
<path d="M3310 1350 l0 -150 150 0 150 0 0 150 0 150 -150 0 -150 0 0 -150z"/>
</g>
</svg>
